<svg id="图层_1" data-name="图层 1" xmlns="http://www.w3.org/2000/svg" viewBox="0 0 46 24"><defs><style>.cls-1{fill:#fff;fill-rule:evenodd;}</style></defs><title>pingdao</title><path class="cls-1" d="M-162,419a2,2,0,0,1,2,2v10a2,2,0,0,1-2,2,2,2,0,0,1-2-2V421A2,2,0,0,1-162,419Z" transform="translate(164 -413)"/><path class="cls-1" d="M-151,418a2,2,0,0,1,2,2v12a2,2,0,0,1-2,2,2,2,0,0,1-2-2V420A2,2,0,0,1-151,418Z" transform="translate(164 -413)"/><path class="cls-1" d="M-120,418a2,2,0,0,1,2,2v10a2,2,0,0,1-2,2,2,2,0,0,1-2-2V420A2,2,0,0,1-120,418Z" transform="translate(164 -413)"/><path class="cls-1" d="M-130,417a2,2,0,0,1,2,2v12a2,2,0,0,1-2,2,2,2,0,0,1-2-2V419A2,2,0,0,1-130,417Z" transform="translate(164 -413)"/><path class="cls-1" d="M-141,413a2,2,0,0,1,2,2v20a2,2,0,0,1-2,2,2,2,0,0,1-2-2V415A2,2,0,0,1-141,413Z" transform="translate(164 -413)"/></svg>