<?xml version="1.0" encoding="utf-8"?>
<!-- Generator: Adobe Illustrator 15.0.0, SVG Export Plug-In . SVG Version: 6.00 Build 0)  -->
<!DOCTYPE svg PUBLIC "-//W3C//DTD SVG 1.1//EN" "http://www.w3.org/Graphics/SVG/1.1/DTD/svg11.dtd">
<svg version="1.1" id="图层_1" xmlns="http://www.w3.org/2000/svg" xmlns:xlink="http://www.w3.org/1999/xlink" x="0px" y="0px"
	 width="240px" height="57px" viewBox="0 0 240 57" enable-background="new 0 0 240 57" xml:space="preserve">
<path fill="#FFFFFF" d="M138.606,17.874c0,1.658-0.282,3.34-0.812,5.021c-0.564,1.694-1.352,3.223-2.41,4.61
	c-1.06,1.364-2.306,2.506-3.789,3.376c-1.503,0.881-3.187,1.317-5.08,1.317h-13.337c-1.787-0.084-3.387-0.578-4.787-1.482
	c-1.41-0.895-2.598-2.023-3.587-3.375c-0.987-1.364-1.74-2.882-2.258-4.551c-0.54-1.659-0.8-3.307-0.8-4.929
	c0-1.659,0.283-3.34,0.823-5.01c0.553-1.694,1.354-3.235,2.4-4.61c1.047-1.388,2.33-2.517,3.811-3.387
	c1.505-0.871,3.176-1.317,5.057-1.317h13.337c1.812,0.094,3.399,0.588,4.812,1.481c1.388,0.894,2.598,2.023,3.585,3.388
	c0.977,1.363,1.741,2.869,2.235,4.54C138.348,14.615,138.606,16.238,138.606,17.874z M128.809,25.06
	c0.965-0.542,1.73-1.212,2.282-2.001c0.541-0.786,0.918-1.646,1.095-2.587c0.212-0.94,0.316-1.823,0.316-2.598
	c0-0.789-0.104-1.659-0.316-2.599c-0.177-0.941-0.554-1.812-1.095-2.588c-0.552-0.787-1.317-1.458-2.282-2.01
	c-0.952-0.553-2.186-0.812-3.669-0.812h-9.926c-1.541,0-2.764,0.259-3.705,0.812c-0.952,0.552-1.694,1.223-2.234,2.01
	c-0.553,0.776-0.918,1.647-1.128,2.588c-0.189,0.952-0.284,1.811-0.284,2.599c0,0.775,0.094,1.658,0.284,2.598
	c0.21,0.941,0.576,1.801,1.128,2.587c0.54,0.789,1.282,1.459,2.234,2.001c0.941,0.552,2.164,0.823,3.705,0.823h9.926
	C126.623,25.883,127.856,25.612,128.809,25.06z"/>
<path fill="#FFFFFF" d="M205.376,20.179c0.187,0.94,0.553,1.8,1.117,2.6c0.539,0.775,1.281,1.458,2.222,1.999
	c0.954,0.552,2.199,0.823,3.729,0.823h12.631c1.494,0,2.718-0.271,3.669-0.823c0.979-0.541,1.754-1.223,2.283-1.999
	c0.54-0.789,0.917-1.659,1.13-2.6c0.187-0.953,0.279-1.799,0.279-2.6V6.476c0-0.881,0.318-1.622,0.919-2.234
	c0.624-0.611,1.364-0.917,2.235-0.917c0.882,0,1.622,0.306,2.245,0.917c0.623,0.612,0.918,1.353,0.918,2.234v11.103
	c0,1.67-0.271,3.34-0.834,5.022c-0.543,1.694-1.332,3.234-2.388,4.599c-1.059,1.389-2.318,2.516-3.813,3.398
	c-1.48,0.87-3.175,1.306-5.068,1.306h-16.442c-1.811-0.081-3.409-0.577-4.81-1.47c-1.398-0.905-2.6-2.034-3.576-3.399
	c-0.988-1.352-1.74-2.87-2.281-4.517c-0.519-1.67-0.788-3.316-0.788-4.94V6.476c0-0.881,0.33-1.622,0.941-2.234
	c0.6-0.611,1.341-0.929,2.211-0.929c0.894,0,1.623,0.318,2.246,0.929c0.623,0.612,0.905,1.353,0.905,2.234v11.103
	C205.058,18.38,205.188,19.226,205.376,20.179z"/>
<path fill="#FFFFFF" d="M189.086,4.078c-1.035-1.341-2.423-2-4.187-2c-1.081,0-2.034,0.284-2.882,0.848
	c-0.847,0.564-1.635,1.258-2.341,2.058l-11.197,13.585L157.272,4.983c-0.706-0.8-1.494-1.482-2.317-2.058
	c-0.859-0.564-1.812-0.848-2.894-0.848c-1.765,0-3.176,0.659-4.21,2c-1.012,1.317-1.53,2.917-1.53,4.822v20.723
	c0,0.941,0.33,1.741,0.952,2.399c0.624,0.658,1.365,0.987,2.26,0.987s1.634-0.317,2.27-0.987c0.612-0.658,0.942-1.458,0.942-2.399
	V14.145c0-1.953,0.104-2.917,0.327-2.917c0.212,0,0.837,0.635,1.883,1.917L166.811,27.2c0.293,0.305,1.493,1.306,2.939-0.036
	l1.212-1.306l11.056-12.714c1.011-1.282,1.635-1.917,1.87-1.917c0.224,0,0.329,0.964,0.329,2.917v15.479
	c0,0.941,0.306,1.741,0.929,2.399c0.625,0.658,1.376,0.987,2.281,0.987c0.872,0,1.647-0.317,2.26-0.987
	c0.623-0.658,0.94-1.458,0.94-2.399V8.9C190.627,7.006,190.133,5.395,189.086,4.078z"/>
<path fill="#FFFFFF" d="M97.161,1.867H68.803c-1.729,0-3.117,1.411-3.117,3.128c0,1.717,1.389,3.129,3.117,3.129h10.386
	c-0.094,0.293-0.165,0.624-0.165,0.964v20.006c0,1.623,1.317,2.952,2.952,2.952c1.612,0,2.952-1.317,2.952-2.952V9.088
	c0-0.341-0.071-0.671-0.188-0.964h12.42c1.717,0,3.104-1.412,3.104-3.129C100.265,3.278,98.877,1.867,97.161,1.867z"/>
<g>
	<path fill="#FFFFFF" d="M48.563,19.179l4.869-2.471c-2.458-5.551-6.68-10.138-11.973-13.054c-0.024,0.047-0.046,0.083-0.07,0.117
		l-2.753,4.528C43.07,10.688,46.586,14.521,48.563,19.179z"/>
	<path fill="#FFFFFF" d="M49.974,23.79c0.235,1.317,0.353,2.658,0.353,4.034c0,12.219-9.95,22.146-22.206,22.146
		C15.89,49.97,5.94,40.043,5.94,27.824c0-12.221,9.95-22.17,22.181-22.17c2.094,0,4.14,0.306,6.044,0.847l2.917-4.787
		c-2.822-0.953-5.811-1.482-8.938-1.482c-15.254,0-27.65,12.373-27.65,27.592c0,15.207,12.408,27.583,27.65,27.583
		c15.22,0,27.639-12.376,27.639-27.583c0-2.271-0.282-4.481-0.799-6.575L49.974,23.79z"/>
	<path fill="#FFFFFF" d="M42.682,6.147c-1.129-0.682-2.599-0.329-3.281,0.788L28.533,24.589c-1.564-1.165-3.716-1.458-5.646-0.577
		c-2.764,1.258-3.963,4.494-2.729,7.187c1.259,2.706,4.505,3.858,7.256,2.588c1.271-0.589,2.047-1.672,2.753-2.764l13.29-21.607
		C44.14,8.312,43.799,6.853,42.682,6.147z"/>
</g>
<g>
	<path fill="#FFFFFF" d="M73.379,46.136h3.045v7.597c0.706-0.54,1.447-1.164,2.211-1.915l0.141,0.586
		c-0.847,0.847-1.835,1.635-2.952,2.363l-0.212-0.457c0.189-0.211,0.282-0.353,0.282-0.494v-7.139h-2.516V46.136z M74.861,41.267
		c1.117,0.87,2.07,1.764,2.87,2.658l-0.377,0.365c-0.705-0.811-1.668-1.729-2.869-2.67L74.861,41.267z M82.27,41.077h0.577v5.46
		h4.363v0.528h-4.363v7.303h4.928v0.542h-9.15v-0.542h3.646V41.077z"/>
	<path fill="#FFFFFF" d="M99.63,42.843h6.045c-0.271-0.682-0.564-1.27-0.871-1.719l0.577-0.096c0.318,0.592,0.6,1.168,0.834,1.814
		h5.775v0.541h-2.716c-0.212,1.061-0.588,2.094-1.106,3.082h4.54v0.506H98.889v-0.506h4.422c-0.376-1.225-0.742-2.236-1.141-3.082
		h-2.54V42.843z M110.427,48.663v6.813h-0.518v-0.918h-8.138v0.918h-0.518v-6.813H110.427z M101.771,51.381h8.115v-2.198h-8.115
		V51.381z M101.771,54.063h8.115v-2.167h-8.115V54.063z M102.771,43.384c0.388,0.93,0.764,1.965,1.07,3.082h3.763
		c0.542-0.955,0.929-1.99,1.153-3.082H102.771z"/>
	<path fill="#FFFFFF" d="M127.739,49.851c-0.87,1.883-1.894,3.531-3.046,4.869l-0.459-0.304c1.152-1.304,2.165-2.929,3.034-4.8
		L127.739,49.851z M125.152,48.087c0.494-2.115,0.846-3.986,1.047-5.598c0.188,0,0.328,0.025,0.436,0.025
		c3.881-0.025,7.031-0.401,9.432-1.189l0.295,0.494c-2.482,0.729-5.73,1.117-9.727,1.141c-0.271,1.787-0.565,3.307-0.859,4.588
		h5.187v-3.271h0.542v3.271h6.021v0.539h-6.021v5.977c0,0.893-0.413,1.329-1.2,1.329h-2.094l-0.118-0.508
		c0.929,0,1.599,0.025,2.024,0.025c0.563,0,0.846-0.331,0.846-0.977v-5.847H125.152z M134.561,49.524
		c1.082,1.588,2.047,3.292,2.917,5.116l-0.447,0.244c-0.917-1.903-1.905-3.61-2.952-5.138L134.561,49.524z"/>
	<path fill="#FFFFFF" d="M159.741,55.156c-0.528,0-1.445,0-2.787-0.023c-1.059-0.035-1.835-0.14-2.398-0.329
		c-0.646-0.188-1.2-0.575-1.718-1.199c-0.213-0.292-0.399-0.412-0.588-0.412c-0.47,0-1.2,0.741-2.177,2.234l-0.435-0.377
		c0.929-1.398,1.719-2.21,2.363-2.363v-5.365h-2.446v-0.539h2.966v5.904c0.188,0.081,0.387,0.26,0.646,0.506
		c0.375,0.493,0.822,0.846,1.34,1.07c0.518,0.21,1.248,0.316,2.188,0.34c0.964,0.013,1.964,0.038,2.964,0.038l3.786-0.038
		l-0.117,0.554H159.741L159.741,55.156z M150.297,41.511c1.105,0.814,2.001,1.637,2.74,2.426l-0.364,0.377
		c-0.706-0.789-1.623-1.6-2.728-2.445L150.297,41.511z M153.966,42.937h2.73c0.164-0.447,0.411-1.068,0.682-1.883l0.54,0.107
		c-0.234,0.602-0.446,1.2-0.67,1.775h5.846v0.518h-6.069c-0.541,1.224-1.2,2.354-1.951,3.387h3.363v-2.232h0.541v2.232h3.646v0.494
		h-3.646v2.446h4.375v0.542h-4.375v3.305h-0.541v-3.305h-4.563v-0.542h4.563v-2.446h-3.929l-0.118-0.529
		c0.765-0.883,1.435-1.998,2.071-3.352h-2.495V42.937L153.966,42.937z"/>
	<path fill="#FFFFFF" d="M174.983,55.322l-0.104-0.519c0.61,0,1.058,0.025,1.316,0.025c0.495,0,0.741-0.271,0.741-0.847v-4.565
		c-0.693,0.281-1.47,0.553-2.34,0.823l-0.129-0.517c0.834-0.225,1.657-0.516,2.469-0.847V44.89h-2.153v-0.541h2.153v-3.188h0.53
		v3.188h1.54v0.541h-1.54v3.773c0.587-0.246,1.152-0.539,1.692-0.822v0.54c-0.528,0.282-1.105,0.554-1.692,0.827v4.891
		c0,0.835-0.366,1.224-1.072,1.224H174.983z M183.758,47.677c-0.271,0.658-0.517,1.154-0.683,1.553h5.728v0.54h-1.917
		c-0.223,1.389-0.787,2.553-1.692,3.423c1.2,0.577,2.388,1.2,3.505,1.905l-0.318,0.434c-1.069-0.682-2.281-1.303-3.61-1.976
		c-0.988,0.837-2.67,1.484-5.058,1.955l-0.199-0.494c2.105-0.414,3.682-0.979,4.729-1.718c-0.918-0.448-2.036-0.941-3.329-1.459
		c0.459-0.66,0.894-1.352,1.293-2.07h-2.528v-0.54h2.812c0.294-0.587,0.54-1.117,0.753-1.637L183.758,47.677z M181.936,43.808
		c0.471,0.824,0.87,1.67,1.223,2.541h1.869c0.436-0.801,0.824-1.705,1.201-2.705l0.541,0.164c-0.354,0.965-0.753,1.811-1.201,2.541
		h2.978v0.516h-8.67v-0.516h2.717c-0.352-0.85-0.717-1.625-1.115-2.332L181.936,43.808z M183.98,41.054
		c0.213,0.436,0.402,0.979,0.589,1.66h3.694v0.504h-8.011v-0.504h3.775c-0.21-0.646-0.412-1.189-0.575-1.553L183.98,41.054z
		 M182.782,49.77c-0.412,0.684-0.813,1.306-1.199,1.848c1.034,0.411,2.069,0.847,3.093,1.329c0.871-0.789,1.423-1.848,1.682-3.177
		H182.782z"/>
	<path fill="#FFFFFF" d="M202.059,45.842c-0.647,1.046-1.353,1.999-2.142,2.821l-0.164-0.539c1.823-2.117,3.105-4.48,3.882-7.047
		l0.471,0.225c-0.388,1.26-0.906,2.471-1.493,3.564v10.609h-0.554V45.842z M206.305,43.794c-0.518,1.26-1.164,2.449-1.906,3.564
		l-0.481-0.27c1.247-1.777,2.164-3.8,2.764-6.104l0.54,0.139c-0.211,0.719-0.458,1.438-0.704,2.131h6.927v0.35
		c-0.246,0.979-0.601,1.969-1.083,2.988l-0.492-0.164c0.435-0.855,0.788-1.751,1.011-2.656h-6.574V43.794z M206.894,47.63
		c-0.589,2.221-1.376,4.188-2.329,5.892l-0.54-0.209c0.917-1.495,1.704-3.437,2.387-5.848L206.894,47.63z M206.388,55.344
		l-0.107-0.515c0.729,0.021,1.4,0.056,2.06,0.056c0.412,0,0.622-0.223,0.622-0.634v-8.822h0.542v8.964
		c0,0.647-0.331,0.951-0.977,0.951H206.388L206.388,55.344z M211.49,47.405c0.918,2.012,1.707,4.057,2.341,6.176l-0.493,0.213
		c-0.705-2.307-1.494-4.377-2.341-6.201L211.49,47.405z"/>
	<path fill="#FFFFFF" d="M232.521,49.208c-1.034,0.325-2.07,0.668-3.188,0.951v3.774c0,0.87-0.399,1.329-1.188,1.329h-1.717
		L226.3,54.72c0.587,0.047,1.127,0.072,1.656,0.072c0.565,0,0.836-0.341,0.836-0.977v-3.531c-1.246,0.273-2.411,0.496-3.47,0.661
		l-0.081-0.517c1.188-0.188,2.363-0.437,3.551-0.682v-3.564h-3.504v-0.541h3.504v-2.844c-1.035,0.209-2.011,0.373-2.94,0.469
		l-0.095-0.494c2.306-0.283,4.341-0.74,6.104-1.412l0.188,0.519c-0.894,0.317-1.811,0.562-2.717,0.8v2.988h4.457
		c-0.104-1.377-0.142-2.869-0.142-4.506h0.542c0,1.682,0.036,3.188,0.141,4.506h5.081v0.516h-5.045c0.106,1.316,0.27,2.4,0.482,3.27
		c0.128,0.482,0.27,1.001,0.458,1.576c0.954-1.068,1.74-2.281,2.388-3.623l0.472,0.248c-0.729,1.529-1.611,2.835-2.659,3.941
		c0.271,0.728,0.589,1.328,0.917,1.797c0.578,0.859,1.061,1.271,1.448,1.271c0.458-0.021,0.833-1.011,1.164-3.01l0.458,0.244
		c-0.331,2.224-0.87,3.331-1.541,3.331c-0.577,0-1.224-0.482-1.929-1.434c-0.354-0.544-0.658-1.143-0.928-1.814
		c-1.201,1.189-2.613,2.084-4.212,2.718l-0.306-0.469c1.669-0.624,3.105-1.577,4.305-2.776c-0.224-0.623-0.411-1.271-0.576-1.928
		c-0.213-0.941-0.377-2.06-0.472-3.342h-4.504v3.434c1.081-0.271,2.129-0.598,3.188-0.974V49.208L232.521,49.208z M235.931,41.36
		c1.153,0.836,2.117,1.646,2.918,2.496l-0.366,0.373c-0.729-0.787-1.728-1.623-2.927-2.516L235.931,41.36z"/>
</g>
</svg>
