<?xml version="1.0" standalone="no"?><!DOCTYPE svg PUBLIC "-//W3C//DTD SVG 1.1//EN" "http://www.w3.org/Graphics/SVG/1.1/DTD/svg11.dtd" ><svg xmlns="http://www.w3.org/2000/svg"><metadata></metadata><defs><font id="SentyPea" horiz-adv-x="2204"><font-face font-family="Senty Pea 新蒂绿豆体" font-weight="400" font-stretch="normal" units-per-em="2048" panose-1="3 0 6 0 0 0 0 0 0 0" ascent="2400" descent="-600" x-height="0" bbox="-50 -537 2192 1746" underline-thickness="150" underline-position="-217" unicode-range="U+002d-ff09" /><missing-glyph horiz-adv-x="2199" d="M724 118 l0 1040 l750 0 l0 -1040 l-750 0 ZM782 176 l634 0 l0 924 l-634 0 l0 -924 Z" /><glyph glyph-name="uni4E0D" unicode="&#x4e0d;" d="M1288 1339 l18 -37 l0 -18 q-266 -417 -377 -540 l18 -35 l0 -18 q-73 0 -396 -394 q-139 -91 -179 -91 l-18 36 l0 55 q103 0 431 412 q230 265 359 504 q-313 -91 -556 -91 l-72 0 q-36 0 -36 36 l0 18 q267 0 808 163 ZM1020 691 l16 0 q49 0 90 -251 q-25 -503 -90 -503 l-16 0 q-37 0 -37 36 q37 308 37 503 l0 71 l-37 126 l37 18 ZM1270 529 q106 0 485 -305 q53 0 90 -71 l0 -18 q0 -37 -37 -37 l-35 0 q-193 90 -306 216 q-163 144 -268 144 l-37 0 l0 18 q18 53 108 53 Z" /><glyph glyph-name="uni4E50" unicode="&#x4e50;" d="M1010 1454 l18 0 q180 -71 232 -234 q-18 -35 -18 -53 l-53 0 q-359 -91 -449 -91 l0 -17 q36 -66 36 -144 l0 -36 q0 -50 -144 -358 q454 167 467 197 l0 53 l-18 126 l18 0 l-18 36 q11 108 55 108 q48 0 358 -197 q126 -18 126 -55 l0 -18 q-216 -35 -413 -125 q0 -220 18 -735 q-12 -90 -107 -90 l-19 0 q-25 0 -107 108 l0 18 l53 0 l54 -36 l19 0 l0 573 l-19 126 q-19 0 -520 -179 l-18 0 l-35 53 q143 320 143 395 l0 126 q0 54 -216 71 l0 73 l37 0 l0 -55 l54 0 q35 0 35 36 q-89 23 -89 55 l54 0 q160 -55 179 -55 q134 0 431 126 l0 18 q-11 0 -144 161 l0 19 ZM1171 915 q0 -31 36 -108 q-18 -31 -18 -71 q233 35 233 71 q-53 0 -215 163 q-36 0 -36 -55 ZM650 252 q37 -6 37 -36 l0 -37 q-118 0 -179 -106 l0 -18 l89 0 q35 -6 35 -37 l0 -18 l-124 -18 q-108 63 -108 91 l0 17 q123 162 250 162 ZM1583 234 l73 0 q129 -58 143 -126 q-18 -35 -18 -53 l-54 0 q-93 106 -144 106 l0 73 Z" /><glyph glyph-name="uni4E91" unicode="&#x4e91;" d="M831 1294 q186 -36 324 -36 q62 0 305 36 l0 -18 l36 18 q30 -18 72 -18 l0 -55 q-357 -36 -431 -36 q-306 13 -306 73 l0 36 ZM1675 916 l18 -36 l0 -36 q-485 -67 -485 -125 q-139 -296 -233 -450 q-91 -119 -91 -161 l54 0 q95 0 611 179 l19 0 l-90 162 l0 35 q5 37 35 37 q162 -117 270 -521 l0 -18 l-72 0 l-143 234 q-417 -198 -630 -198 q-132 0 -142 54 l0 89 q323 510 323 576 l-19 0 q-355 -91 -539 -91 q-16 0 -143 19 l0 54 q45 0 143 18 l0 -18 q186 18 629 125 l36 36 q20 0 54 -18 q335 54 395 54 Z" /><glyph glyph-name="uni4ED6" unicode="&#x4ed6;" d="M553 1310 l37 0 q144 0 144 -198 q-61 -185 -235 -358 l-17 0 l0 -18 q179 0 179 -538 q-13 -233 -71 -233 l-55 35 q0 39 18 198 q0 465 -71 465 q-50 0 -179 -88 q-30 -18 -91 -18 l0 53 q413 416 413 557 l0 36 q0 44 -72 53 l0 54 ZM1360 1310 q108 -78 108 -251 q162 53 269 53 l90 0 q108 -11 108 -53 l0 -73 q-44 -269 -252 -484 l-18 0 q-161 0 -161 55 l-36 0 q0 -90 -90 -126 l-35 0 q-198 161 -198 323 l-36 18 l-17 0 l0 -395 q0 -233 161 -233 q19 0 54 -18 q610 18 610 72 l0 36 q71 -18 71 -73 q0 -107 -484 -107 q-110 -17 -270 -17 q-232 46 -232 233 l0 251 q0 40 -18 71 q18 31 18 71 l0 126 l-359 -143 l0 36 q0 64 323 180 l18 0 l0 161 l-18 126 l36 18 l18 0 q72 0 107 -234 l18 0 q233 96 233 126 q-41 0 -53 232 l35 19 ZM1486 968 l0 -286 q0 -23 90 -90 l54 0 q143 142 214 431 l0 18 l-17 0 q-105 0 -341 -73 ZM1163 862 l0 -18 q65 -229 180 -323 l35 0 l19 71 q0 56 -54 270 q34 18 54 18 l0 35 q-221 -53 -234 -53 Z" /><glyph glyph-name="uni4F19" unicode="&#x4f19;" d="M1101 1372 l18 0 q26 0 53 -53 l-18 -36 l55 -126 l-18 -36 q0 -30 36 -107 l-18 -72 q18 -156 18 -179 q-64 -753 -215 -753 q0 -36 -180 -54 q-123 72 -144 72 l0 18 q7 35 37 35 q59 -35 107 -35 l17 0 q193 0 234 395 q36 77 36 287 l0 142 q0 181 -36 449 q18 34 18 53 ZM528 1086 l18 0 q107 -12 107 -54 l0 -18 q0 -140 -144 -286 q144 0 144 -305 q0 -96 -36 -305 l-54 0 l-35 18 q35 266 35 429 q0 48 -54 126 l-161 -107 l-18 0 q-36 0 -36 36 q226 261 269 376 l0 18 l-35 54 l0 18 ZM1567 1014 q161 -67 161 -180 l0 -88 q-79 -112 -413 -270 l0 -17 q343 -209 539 -431 q35 -18 53 -18 l0 -36 q0 -28 -71 -72 l-17 0 q-383 401 -592 502 l0 55 q1 19 393 322 l0 89 q0 25 -106 108 q0 36 53 36 ZM1028 816 l19 0 q36 -172 36 -251 q-62 -53 -179 -53 q-159 61 -216 179 l0 55 q7 35 37 35 l35 0 q0 -121 180 -161 l53 0 l0 161 q6 35 35 35 Z" /><glyph glyph-name="uni4F34" unicode="&#x4f34;" d="M1342 1624 l53 0 q53 0 107 -179 q37 0 37 -89 q-18 0 -18 -19 l36 19 l18 0 l-18 -90 l0 -18 l18 0 q134 126 161 126 q36 0 36 35 l18 0 q36 -6 36 -35 q-192 -199 -215 -252 l17 -90 q-17 0 -17 -18 q215 -319 215 -358 q0 -41 90 -54 l0 -37 q0 -152 -430 -268 q-37 -172 -73 -645 l-53 0 q0 35 -18 35 l18 180 l0 393 l-18 0 q-97 -53 -322 -53 l-18 72 l358 198 l0 287 l-35 0 q-263 -126 -323 -126 l-19 0 q-36 0 -36 35 l0 18 q238 233 413 323 l0 161 q0 55 18 55 l-36 394 ZM786 1409 l72 0 l0 -53 q0 -144 -521 -647 l-53 0 l0 55 q500 540 502 645 ZM1467 1337 l0 -197 l35 0 q0 28 37 72 q-53 54 -53 125 l-19 0 ZM1002 1337 l35 0 q-17 -94 -17 -107 q59 -216 214 -216 l0 -36 q-35 0 -35 -35 q-194 0 -270 287 q36 107 73 107 ZM1467 996 l0 -18 l35 -53 q-35 -5 -35 -37 l0 -18 l35 18 l91 0 l35 -18 l0 18 q-53 135 -53 199 l-18 0 q-55 -91 -90 -91 ZM1199 817 l0 -35 q130 53 161 53 l0 72 l-18 0 q-96 -90 -143 -90 ZM589 870 l35 0 l36 -124 l0 -73 q0 -122 18 -214 q-18 -93 -18 -215 l0 -19 q0 -18 -18 -18 l18 -35 q-23 -91 -53 -91 l-18 0 l-36 19 q36 237 36 770 ZM1502 817 q-35 -65 -35 -144 l0 -108 l161 181 l0 18 q0 35 -126 53 ZM1682 691 q0 -42 -89 -107 q-126 -98 -126 -198 l19 0 q204 69 358 144 q-104 161 -126 161 l-36 0 ZM1234 315 l36 0 q34 18 55 18 q0 -18 17 -18 l18 36 l0 53 l-18 0 q-108 -67 -108 -89 Z" /><glyph glyph-name="uni4F60" unicode="&#x4f60;" d="M1244 1543 l36 -71 q-114 -316 -234 -467 l0 -35 q553 250 807 250 l37 -53 q-127 -258 -217 -269 q0 -36 -214 -252 q-31 -53 -73 -53 q-18 -455 -18 -664 l0 -53 q0 -132 -53 -144 q-94 36 -161 144 q-41 0 -54 214 l36 18 q53 -149 144 -250 l0 18 q0 18 -18 53 q36 261 36 305 q-18 156 -18 268 l-91 -53 q-71 27 -71 53 l0 19 q99 0 162 72 q-36 222 -73 287 q18 34 18 53 l-36 0 q-49 -45 -214 -53 q-73 53 -73 90 l270 465 l-36 0 l0 37 q36 71 108 71 ZM1262 970 l0 -37 q71 0 106 -251 l37 0 q0 26 268 341 q4 16 108 126 q-149 -37 -519 -179 ZM597 1149 l0 -126 q0 -90 -35 -90 l19 -35 l0 -36 q-54 0 -91 -162 l-35 18 l17 -36 l0 -17 q-71 0 -71 -54 l17 0 l37 17 q146 0 161 -268 l-19 0 l19 -35 l0 -181 l18 -215 l-37 -18 l-16 0 q-37 0 -37 54 q-24 610 -107 610 q-19 -35 -19 -54 l-89 0 q-61 -72 -108 -72 q-18 35 -18 53 q269 385 269 484 q32 0 54 163 l71 0 ZM365 611 l0 -54 l18 0 l0 54 l-18 0 ZM957 521 l53 0 l0 -108 q-40 -214 -53 -214 l18 -37 l0 -107 l53 0 l0 -35 q0 -27 -53 -55 l-73 0 q-35 153 -35 197 q0 178 90 359 ZM1691 486 q305 -114 305 -287 l0 -109 l-89 -17 q-31 219 -179 305 q-45 35 -90 35 l0 36 q0 37 53 37 Z" /><glyph glyph-name="uni4F8B" unicode="&#x4f8b;" d="M1736 1408 l53 0 q143 -258 143 -806 q0 -18 -17 -18 q17 -180 17 -269 l0 -144 q0 -304 -143 -304 q-47 47 -233 143 q0 73 -54 73 l0 35 q19 0 19 -18 l35 18 q134 -54 180 -90 q0 -36 71 -36 l17 36 q0 113 18 269 q-18 207 -18 394 q0 20 -17 53 l17 37 l-17 35 l17 72 l-35 161 l18 0 l-71 322 l0 37 ZM1108 1300 l91 0 l0 -55 l-287 -53 l0 -17 q71 0 71 -36 l0 -90 l-89 -161 l0 -18 q152 121 358 143 q108 0 108 -106 q0 -26 -234 -431 q0 -36 -108 -72 q-111 -185 -340 -233 l-17 36 l0 18 q86 0 304 233 l0 36 q-134 71 -179 71 l0 37 q6 36 36 36 l17 0 q68 0 216 -73 q197 256 197 359 l0 18 q-166 0 -466 -216 l-36 0 l-18 37 l0 53 q162 214 162 323 l-55 36 l-89 0 l0 53 q207 72 358 72 ZM571 1175 l54 0 q36 -6 36 -36 l0 -18 q0 -202 -162 -395 l-18 0 l0 -53 q55 0 55 -179 l0 -108 q0 -93 -19 -303 q-27 0 -71 -37 l-18 0 q-35 0 -35 37 q53 227 53 340 l0 232 l-108 -71 l-53 0 l-18 71 q304 215 304 502 l0 18 ZM1449 888 q143 0 143 -268 q-18 -35 -18 -55 l-53 0 q-36 0 -54 234 l-89 17 l0 18 q0 27 71 54 Z" /><glyph glyph-name="uni4FBF" unicode="&#x4fbf;" d="M1453 1452 l90 0 q37 -5 41 -36 l6 -35 q4 -27 -46 -53 l-36 0 l-3 17 l14 36 q-277 -71 -578 -215 l-6 36 q-12 82 518 250 ZM721 1328 l18 0 q35 -6 40 -37 l3 -18 q30 -199 -325 -572 l-88 -18 l-8 53 q254 254 323 466 q31 0 37 126 ZM1339 1255 q38 -6 43 -35 l8 -54 q3 -19 -16 -19 q23 -29 32 -88 l161 0 q159 0 196 -250 l3 -19 q-25 -376 -300 -376 q-65 -43 -47 -161 l2 -18 l449 -250 q64 -69 78 -161 l-54 0 q-195 190 -490 285 l3 -17 q-44 -199 -163 -233 q-18 0 -51 -17 q-192 35 -230 108 l-5 35 q46 0 133 -54 l18 0 q168 0 215 233 q-294 144 -361 144 l-6 35 l70 18 q118 -36 147 -36 l-3 18 q-153 195 -265 590 l23 197 l35 0 l39 -18 l1 -126 l5 -35 q313 60 298 161 q-4 143 32 143 ZM1398 986 l18 -124 q4 -24 172 -72 l30 -71 q6 -40 -199 -233 l18 0 q269 117 238 323 l-8 53 q-14 95 -89 124 l-180 0 ZM1038 879 l31 -89 q130 36 246 36 l-14 89 l13 36 l-36 0 q-89 -54 -240 -72 ZM598 826 q63 0 120 -198 l53 -357 q6 -40 -6 -71 q2 -18 19 -18 q13 -197 -23 -197 l-18 0 l-59 36 q-2 241 -43 519 l-13 88 q-35 108 -43 162 q18 0 13 36 ZM1110 754 q-9 -53 -27 -53 q57 -150 130 -269 q136 49 119 161 l-22 143 l-161 0 l-39 18 ZM1415 754 l1 -126 l2 -17 q111 91 109 108 l-3 17 l-91 18 l-18 0 ZM1229 325 q6 -42 97 -54 l-11 72 l-86 -18 Z" /><glyph glyph-name="uni5148" unicode="&#x5148;" d="M1145 1507 q36 -119 144 -197 q69 -55 89 -55 q59 36 108 36 l18 0 q0 -159 -197 -215 q-23 0 -144 -53 l0 -37 q0 -18 18 -18 q-38 -286 -126 -286 l0 -36 l18 0 q159 17 197 17 q19 -33 19 -53 q0 -83 -144 -215 q72 -125 72 -179 l0 -18 q0 -83 -36 -287 q66 -30 250 -53 q56 0 269 89 l0 18 q0 95 -17 305 l35 0 q55 0 90 -252 q0 -179 -322 -250 l-36 17 q-20 0 -54 -17 q-323 17 -323 143 q37 124 37 215 l0 162 q0 35 -37 35 q-189 -188 -555 -376 q-36 0 -36 -36 l-90 0 l0 72 q108 0 538 340 l-36 -18 l-18 0 l0 18 q0 39 197 108 l108 144 l0 17 q-455 -71 -520 -161 l-35 0 q-94 0 -108 53 q63 63 484 179 q0 -17 18 -17 q0 53 71 233 q-18 28 -18 107 q-466 -215 -627 -215 l-36 55 q96 191 179 591 l18 0 l37 -72 q-37 -269 -55 -269 q-36 0 -36 -214 q185 88 520 196 l0 431 q10 0 72 18 ZM1145 1345 l18 -90 l0 -143 l18 0 q48 40 179 72 l0 18 q-52 0 -197 143 l-18 0 Z" /><glyph glyph-name="uni5165" unicode="&#x5165;" d="M597 1150 q330 0 682 -305 l611 -647 q-18 -31 -18 -72 l-71 0 q-140 97 -450 504 q-445 430 -683 430 q-162 22 -162 55 l0 18 l91 17 ZM812 934 l72 0 l91 -18 l0 -36 q0 -244 -414 -520 q-97 -18 -161 -18 l-37 0 q-25 0 -54 54 l18 36 l73 -36 q219 40 502 449 q0 53 -90 53 l0 36 Z" /><glyph glyph-name="uni524D" unicode="&#x524d;" d="M1484 1577 l178 0 q0 -18 18 -53 q0 -64 -304 -179 q-107 -49 -107 -72 l197 35 l0 -18 q71 15 71 36 l90 -18 l126 0 l0 -71 l-126 18 q-1289 -226 -1289 -304 l-36 0 l0 35 q138 101 609 216 q244 64 591 304 l0 18 l-36 0 q18 35 18 53 ZM803 1506 q91 -120 180 -161 q34 18 53 18 l17 -37 l0 -18 l-88 -18 q-118 0 -250 180 l0 17 l88 19 ZM983 1058 l35 0 l0 -35 q-53 -82 -53 -144 l88 18 l73 0 q76 0 90 -465 q0 -19 -19 -54 l19 -108 l0 -106 q0 -55 -55 -216 l-35 0 q-25 0 -54 54 l0 18 l36 54 l0 269 l-232 -143 l0 -108 q0 -197 -55 -197 l-35 0 q0 19 -18 53 q18 123 18 198 l0 36 l-90 -18 l-18 0 l0 36 q5 35 37 35 l35 -18 q53 71 71 269 l-35 18 q0 -25 -108 -72 l-71 0 l0 89 q250 46 250 144 l0 18 l-18 88 q96 284 144 287 ZM1698 1040 q143 0 143 -269 l0 -501 l18 -178 l-18 0 l18 -36 l0 -161 l37 -53 l0 -18 q-66 0 -90 -126 l-71 0 l-179 161 l0 54 l89 0 q0 -42 90 -89 l18 0 l0 358 q0 121 -18 214 q18 93 18 215 l0 215 l-37 53 q19 35 19 54 q-44 37 -73 37 l0 35 q6 35 36 35 ZM929 646 q18 -35 18 -53 l125 0 l0 -18 q0 -36 -143 -54 q-18 -31 -37 -215 l19 0 q181 69 197 126 l0 394 q-161 0 -161 -108 q0 -72 -18 -72 ZM1412 701 l36 0 q71 0 71 -215 l0 -126 q0 -92 -53 -107 l-18 0 q-36 0 -36 35 q0 28 18 287 l-18 126 Z" /><glyph glyph-name="uni52A0" unicode="&#x52a0;" d="M838 1399 l35 0 q36 -5 36 -36 l0 -35 q0 -64 -18 -161 l18 -37 q-18 -145 -54 -268 q129 18 233 53 q144 -20 144 -71 l0 -37 q0 -320 -251 -805 l-108 -108 q-103 0 -125 143 q0 18 19 18 l-19 91 l0 70 l54 0 q18 -251 71 -251 q144 277 287 754 l-17 35 l0 90 q-323 -47 -323 -143 q-150 -609 -377 -825 l-53 0 l-18 71 q131 0 340 736 l0 53 q-207 -53 -431 -53 l-70 0 l-18 71 l35 18 l90 0 q449 45 449 90 q53 260 53 358 l0 54 l35 54 q-17 31 -17 71 ZM1286 898 l36 0 q14 0 89 -126 q11 54 143 54 l37 0 q364 0 412 -125 l0 -36 q0 -103 -197 -216 q0 -13 -108 -107 l18 0 q97 18 161 18 q37 -6 37 -35 l0 -37 q0 -36 -55 -36 q-314 -18 -376 -18 q0 -26 -53 -53 l-19 0 q-65 0 -125 717 ZM1393 736 l0 -17 l54 -431 q334 230 448 377 q0 44 -197 71 l-179 0 q-41 0 -72 -17 q-34 17 -54 17 Z" /><glyph glyph-name="uni5343" unicode="&#x5343;" d="M1090 1437 q73 -14 73 -35 q18 0 18 18 q162 -18 162 -55 l0 -54 q-20 0 -54 -18 l-72 18 q-42 0 -306 -90 l-18 0 l0 18 q181 132 181 144 l-19 37 l35 17 ZM1234 1258 l55 0 q25 0 179 -252 l162 -18 q99 18 144 18 l17 -36 l0 -37 q0 -35 -448 -106 l-18 -37 l0 -107 q0 -118 18 -360 l-18 0 l18 -36 q0 -18 -18 -18 l18 -36 q0 -17 -18 -17 q0 -20 18 -55 q-14 -233 -36 -233 l18 -37 q0 -25 -54 -53 l-37 0 q-35 0 -35 35 q18 217 35 235 q-17 183 -17 287 l0 414 q-481 -144 -755 -144 q-26 0 -54 71 l144 0 q665 144 665 180 l0 198 l-18 125 l35 19 ZM1325 1132 l0 -216 q45 0 161 35 l0 19 q-52 0 -161 162 Z" /><glyph glyph-name="uni5355" unicode="&#x5355;" d="M1307 1577 l71 0 l0 -143 q-164 -215 -250 -215 l0 -53 q35 0 35 -55 l250 55 l108 0 q89 -55 89 -126 l-17 -37 l17 -35 q-62 -199 -161 -411 q0 -36 -36 -36 q0 -43 269 -178 l0 -91 l-483 -125 l0 -429 l-36 0 q-47 0 -70 322 q16 35 16 54 l-35 18 q-227 -72 -482 -126 l-19 36 l0 36 q45 53 286 179 q0 -18 18 -18 q0 31 197 107 l19 37 l0 35 q-259 -90 -305 -90 q-61 46 -161 538 q-14 0 -54 89 l0 18 q0 17 19 17 q-73 130 -73 197 l36 19 l89 0 q41 0 72 -19 q83 37 178 37 l0 17 q-178 158 -178 286 l35 0 q104 -82 216 -268 l18 0 q0 31 178 107 l162 197 l-36 0 q18 35 18 54 ZM698 1111 l-89 0 l0 -18 l71 -125 q394 85 394 143 q0 41 19 73 l-19 0 q0 -33 -376 -73 ZM1217 1040 l0 -37 q0 -112 108 -142 q18 -32 18 -72 l0 -18 q-144 -106 -144 -232 q18 0 18 -18 q90 36 90 54 q-37 58 -37 90 l37 18 q36 -58 36 -91 q178 283 178 430 l-53 71 l-251 -53 ZM1145 986 l36 0 l0 36 q-36 -5 -36 -36 ZM716 879 l108 -465 q269 185 269 339 l-19 0 q-89 0 -89 -88 l-18 0 q-108 47 -108 142 q234 28 234 72 l0 107 q-330 -107 -377 -107 ZM1181 879 l36 0 l0 36 q-36 -6 -36 -36 ZM1020 502 l-18 -70 q43 35 72 35 q0 35 -36 35 l-18 0 ZM1360 449 q0 -49 -179 -106 l0 -108 l18 0 q51 0 358 71 l0 19 q-49 0 -179 124 l-18 0 ZM859 146 l0 -19 l35 0 q101 55 199 55 l0 88 l-19 0 q-156 -124 -215 -124 Z" /><glyph glyph-name="uni53F0" unicode="&#x53f0;" d="M840 1515 l89 0 q216 -141 216 -250 q0 -26 -449 -448 q-179 -160 -179 -180 l0 -17 q57 0 860 287 q-36 113 -36 142 l54 0 q431 -321 431 -394 l0 -35 q-68 -108 -162 -108 l0 36 l71 89 q-271 203 -287 233 q-18 0 -53 18 q0 -67 -878 -376 l-18 0 q-19 0 -19 18 l-35 -18 q-27 0 -71 72 l0 18 q0 23 430 447 q215 194 215 234 q0 22 -179 214 l0 18 ZM785 458 l90 0 q0 -18 18 -54 q-53 0 -53 -36 l0 -18 q154 54 466 54 q358 -23 358 -142 q0 -70 -269 -252 q161 0 161 -35 q0 -50 -304 -73 l-198 0 q-35 0 -35 37 q33 55 322 142 q198 146 198 181 q-109 31 -394 53 q-35 -18 -55 -18 l0 18 q-215 -18 -215 -90 q0 -107 54 -107 q0 -18 -18 -18 l125 -269 l0 -18 q0 -26 -53 -53 q-72 0 -234 502 l0 161 q6 35 36 35 Z" /><glyph glyph-name="uni53F7" unicode="&#x53f7;" d="M690 1571 l36 0 q49 -35 77 -35 q15 0 140 17 l2 -17 l35 17 l323 0 q179 0 200 -143 q-13 -96 -209 -288 l-11 -35 l17 0 l167 89 l89 0 l11 -71 q-110 0 -653 -305 l-18 0 q-26 0 -62 53 l-6 37 l133 71 q-243 422 -255 502 l18 0 l-23 37 l-11 71 ZM921 1463 l-71 0 l8 -53 q7 -48 52 -109 l-5 -88 q37 -6 41 -37 q-18 0 -15 -18 q71 0 90 -126 l37 0 q238 211 355 378 l-2 17 q-146 54 -205 54 l-71 0 q-40 0 -71 -18 q-17 0 -19 18 l-124 -18 ZM1758 908 l18 0 q36 -6 41 -36 q2 -26 -421 -181 q3 -20 -281 -287 l19 0 l-3 19 l39 -19 l162 0 q393 0 417 -160 q-134 -539 -492 -539 q-145 0 -269 234 l18 0 q141 -98 147 -144 l53 0 q42 0 76 -19 q251 90 341 360 q27 65 15 144 q-117 53 -349 53 l-72 0 q-72 0 -228 -35 l-3 18 q-15 102 317 393 l-2 19 q-588 -143 -912 -143 l-43 53 l-5 36 q9 41 228 143 l19 0 l5 -35 q-63 -91 -149 -91 l5 -35 q746 108 1309 252 Z" /><glyph glyph-name="uni542C" unicode="&#x542c;" d="M1629 1480 q35 -6 35 -36 q-8 -36 -393 -126 l-18 -125 l0 -305 l18 0 q130 59 430 108 q197 -13 197 -53 q0 -36 -35 -36 l-199 0 q19 -193 37 -234 q-18 -31 -18 -71 q0 -55 18 -55 q-37 -278 -37 -734 l-35 -18 l-36 0 q-40 0 -53 179 q36 0 36 36 q17 468 17 734 l0 91 q0 35 -53 35 q-323 -46 -323 -126 q-133 -555 -233 -555 l-72 0 q-53 18 -53 108 l0 36 l53 0 q0 -73 36 -73 q216 418 216 897 q-19 35 -19 55 l35 0 l-16 36 l16 88 l-89 -18 l-18 0 q-27 0 -53 73 l609 89 ZM392 1283 l18 0 l53 -197 q94 18 108 18 q323 0 323 -161 q0 -92 -108 -217 q115 69 252 181 l17 0 l0 -19 q-132 -219 -430 -394 l-54 0 q-161 0 -161 341 q-17 128 -108 179 q0 45 73 54 l-19 125 l0 55 q5 35 36 35 ZM463 1014 l73 -412 q268 236 268 341 l0 17 q-11 54 -143 54 l-198 0 Z" /><glyph glyph-name="uni5728" unicode="&#x5728;" d="M1132 1552 l18 1 q119 6 169 -171 q187 -136 191 -205 q-600 -219 -597 -284 q3 -63 -80 -201 l23 -124 l2 -36 l-8 -217 q201 83 476 168 l-1 36 q-1 19 -19 18 q3 324 56 327 l36 1 l117 -173 q105 -68 200 -80 l2 -36 q2 -50 -298 -159 q-7 -218 -25 -218 l19 -35 l5 -89 l-14 -90 q378 19 434 -86 l1 -18 q1 -35 -34 -37 q-216 42 -342 35 q-104 -5 -286 -32 q-91 18 -93 49 q-1 26 52 57 q19 1 54 -16 l108 24 l35 2 l-22 89 q8 216 2 324 l-17 -1 q-443 -112 -440 -186 q8 -394 -53 -397 q-58 -3 -97 175 l17 0 l37 -16 l-11 251 l-37 -2 l-2 36 q72 4 61 236 l-1 18 l-17 -1 q-201 -468 -311 -643 l-35 -2 q-46 -3 -58 68 q26 146 66 148 l2 -36 q170 264 275 588 l-3 72 q56 3 116 204 l-18 -1 l-213 -29 q-91 8 -93 49 l-1 36 l108 -12 q301 15 330 231 q118 292 214 390 ZM976 1058 l1 -17 q295 159 423 165 l-1 36 q-163 40 -169 153 l-22 88 l-18 -1 q-93 -94 -214 -424 ZM1405 721 l3 -54 l21 -70 l3 -73 q15 1 142 27 l-1 36 q-144 17 -150 135 l-18 -1 ZM447 133 l1 -18 q1 -35 -33 -37 l-1 17 q2 36 33 38 Z" /><glyph glyph-name="uni5979" unicode="&#x5979;" d="M473 1326 q145 0 237 -286 l-57 -412 q161 0 202 143 q64 251 142 251 l36 0 l2 -17 q-39 -66 -133 -359 q36 0 38 -18 q124 55 209 55 l-11 143 q3 35 33 35 q32 0 85 -161 q129 71 173 71 l-17 215 l11 90 q-36 0 -39 36 l-3 35 l54 0 q26 0 58 -53 l24 -305 q51 49 280 90 l53 0 q36 -6 39 -35 q-149 -502 -336 -502 l-56 36 q6 -72 -30 -72 l-18 0 q-24 0 -98 90 l-1 18 q3 35 33 35 q8 -35 39 -35 l1 214 l-3 37 q-179 0 -169 -126 q4 -56 -39 -412 q5 -61 168 -89 l406 89 q1 -18 18 -18 l8 125 l71 0 q4 -52 52 -178 l1 -18 q-198 -18 -423 -90 q-18 0 -19 17 l-89 -17 l-71 0 q-215 0 -229 179 q48 291 52 465 q-185 -35 -230 -35 l-2 35 q-63 0 -154 -322 q-11 0 -32 -53 q7 -90 209 -144 l4 -53 l-88 -18 q-137 66 -152 107 l-87 -18 l-92 18 l-4 55 q107 0 101 70 q-62 268 -91 268 l-139 -70 l-55 0 q-35 0 -37 35 q12 48 257 143 q-4 59 41 376 l-7 90 q-23 127 -125 232 l-1 18 ZM1512 396 l18 0 q204 177 253 430 q-262 -90 -258 -143 q-9 -45 -13 -287 ZM658 557 l9 -108 l25 -89 l18 0 q-4 48 72 232 l-36 0 q-43 -35 -88 -35 Z" /><glyph glyph-name="uni5DF2" unicode="&#x5df2;" d="M757 1339 l37 -19 q31 19 72 19 l0 -19 l35 19 q253 0 432 -72 l0 -91 q-18 0 -198 -179 l-234 -125 q-250 -161 -250 -181 l0 -18 l18 0 q364 91 431 162 l108 0 l0 -18 q0 -53 -467 -215 q-108 0 -108 -161 q0 -73 -36 -234 q0 -133 432 -180 l35 0 q181 0 538 73 l0 53 q0 54 -53 144 l18 71 q-36 133 -36 180 l18 0 q144 -167 144 -467 q0 -121 -664 -144 l-37 0 q-485 54 -485 234 q35 258 35 431 q-35 0 -35 36 q61 65 71 306 q-36 0 -36 35 q6 37 36 37 l37 0 q36 -7 36 -37 l0 -179 l18 0 q422 262 466 341 q73 0 91 72 q-263 36 -288 36 l-234 0 l-89 18 l0 53 l71 0 q41 0 71 19 Z" /><glyph glyph-name="uni5E73" unicode="&#x5e73;" d="M1567 1571 l17 -36 q0 -28 -340 -144 q71 -219 179 -395 q59 55 89 55 l-18 89 q102 53 144 53 l0 -35 q0 -105 -126 -215 l0 -18 q80 -108 126 -108 q55 0 55 -36 l0 -37 q0 -65 -449 -214 q18 -179 18 -270 l0 -430 l-18 -125 l-37 0 l-54 539 q18 31 18 71 l-18 71 l18 37 q-18 89 -35 89 l-126 -36 l0 18 l-36 -18 l-17 0 q-211 0 -378 -53 q-33 17 -53 17 l0 36 q0 24 252 126 q0 30 124 36 l0 36 q-142 0 -142 377 q0 176 197 305 l0 16 l-91 -16 l-358 0 l0 35 q179 18 323 54 l0 -18 l35 18 l73 0 q191 0 628 126 ZM866 979 q13 -235 73 -235 l35 0 l72 55 l72 0 l-35 -55 l35 0 q35 0 35 37 l0 18 l-35 0 q35 65 35 144 l0 89 q0 40 -17 72 q0 18 17 18 l-17 90 l0 160 l-18 0 q-208 0 -252 -393 ZM1226 1248 q36 -134 36 -162 q0 -18 -18 -54 l18 -107 l-18 -90 l35 0 q0 21 109 126 q-73 90 -144 287 l-18 0 ZM1423 870 l-179 -179 l0 -71 q291 77 358 161 q-148 89 -179 89 ZM1118 674 q0 -47 -216 -90 l-18 -36 l18 0 q21 0 198 36 l53 0 l0 90 l-35 0 Z" /><glyph glyph-name="uni5EFA" unicode="&#x5efa;" d="M1171 1585 l18 0 q89 -46 90 -71 l0 -125 l411 0 l0 -53 q-100 -161 -126 -161 l19 -36 q-108 -127 -108 -197 l18 0 q71 0 71 -35 q0 -31 -124 -55 q-34 -178 -126 -178 l-17 0 l0 -36 q220 53 304 53 l0 -35 q-195 -54 -304 -108 q17 -26 17 -107 l393 89 l0 18 q-70 0 -70 72 q196 -58 196 -90 l0 -53 q-494 -108 -519 -143 l18 -36 l0 -18 q0 -18 -18 -18 l18 -35 q-18 -304 -71 -304 l-37 0 l0 375 l-446 -125 l-55 0 l0 35 l-18 0 l0 -71 q3 -24 234 -108 q168 -161 554 -232 q75 0 197 18 l233 -36 l0 -18 q0 -35 -54 -35 q-48 0 -482 -37 q-308 83 -591 287 q-17 0 -144 35 q0 -130 -285 -214 l-37 0 l0 36 q269 97 269 215 l-18 0 l-72 18 q-152 -18 -232 -18 l0 18 q0 77 286 89 l89 -18 l0 107 q0 37 -106 233 l0 17 q0 86 106 162 q34 107 108 107 l0 18 l-37 0 q-116 -37 -160 -37 l-90 0 q-25 0 -53 55 q0 36 466 89 l17 -36 l0 -35 q-286 -277 -286 -358 q106 -127 106 -215 q483 130 483 180 l0 106 q-196 -71 -410 -124 l-18 35 q0 31 178 89 q233 64 233 90 l0 161 l-215 -72 l-53 0 q0 20 -18 54 q289 96 303 125 q0 19 -17 19 l17 88 l0 73 q-313 -55 -357 -90 l-89 0 q0 19 -18 53 q370 126 464 126 l0 125 q-101 0 -124 -18 q-269 0 -269 89 l0 18 l36 18 q37 0 37 -53 l124 17 l179 0 q0 45 -36 161 q18 32 18 71 ZM1314 1282 l0 -107 l179 0 q0 27 90 143 q-72 0 -72 18 q-197 -18 -197 -54 ZM1314 1086 l0 -91 l-17 -88 l53 0 l107 179 l0 17 l-53 0 l-90 -17 ZM1297 835 l0 -36 l35 0 l0 36 l-35 0 Z" /><glyph glyph-name="uni5F00" unicode="&#x5f00;" d="M1477 1438 l18 -36 q0 -27 -55 -55 q-18 0 -53 18 l-252 -36 l0 18 q-90 -36 -126 -36 l0 18 l-36 -18 l-53 0 q-133 0 -144 72 l701 55 ZM1314 1239 l19 0 q18 0 90 -269 l35 18 l91 0 l179 -18 l0 -54 q-29 -38 -305 -144 l0 -18 q17 -330 17 -556 q0 -42 18 -72 q-12 -45 -35 -288 l-90 0 q-40 148 -72 197 l0 37 q6 36 35 36 l18 0 q0 -54 37 -54 l0 90 q0 40 -18 72 l18 35 q-18 32 -18 72 q0 19 18 19 q-18 35 -18 53 q0 93 -19 359 l-18 0 q-45 0 -323 -71 l0 -37 q-71 -592 -143 -592 q-27 0 -54 72 q36 121 108 539 q-163 -55 -270 -55 l-125 0 l-18 91 q28 0 71 35 l35 0 q0 -53 37 -53 q216 26 216 71 l35 0 l37 -18 l0 127 q-37 313 -37 323 l37 0 q25 0 53 -54 l0 -54 q36 0 36 -127 l0 -179 q323 68 323 91 q0 218 -53 287 l35 18 l-17 36 q5 35 35 35 ZM1405 934 l0 -54 q132 0 144 54 l-144 0 Z" /><glyph glyph-name="uni5F0F" unicode="&#x5f0f;" d="M1702 1528 l49 0 q50 -16 50 -100 l0 -16 q0 -33 -33 -33 q-24 0 -100 100 l0 17 q5 32 34 32 ZM1171 1512 l67 0 q24 0 199 -249 q42 0 65 -66 q107 -43 117 -83 l0 -33 q-7 -38 -315 -149 q0 -49 -16 -49 q76 -306 98 -315 l-15 -35 q177 -417 231 -447 l0 34 l17 0 q143 -121 216 -365 l0 -17 q0 -32 -51 -32 q-255 199 -413 562 q-83 218 -183 631 q-341 -133 -597 -216 q-16 0 -16 18 l-82 -18 l-34 0 l0 18 q90 75 712 264 q0 45 -33 447 l0 33 q33 0 33 67 ZM1220 1428 q0 -16 18 -49 q0 -17 -18 -50 l51 -314 q28 0 248 82 l0 34 q-150 63 -264 297 l-35 0 ZM1102 567 q28 -14 43 -14 l0 -28 q0 -53 -337 -141 q13 -29 27 -155 l-14 0 l14 -28 q0 -14 -14 -14 l14 -28 q-14 -25 -14 -57 l14 0 q214 37 267 85 l57 0 l0 -42 q-362 -170 -564 -170 l-99 0 l0 43 q0 22 268 70 l0 57 q0 70 -14 210 q14 0 14 14 l-42 0 q-103 -55 -182 -55 q-29 0 -29 27 l-28 -13 l-14 0 l0 13 q0 31 267 99 q0 19 72 71 l0 -43 q36 0 294 99 Z" /><glyph glyph-name="uni5F53" unicode="&#x5f53;" d="M1045 1651 l54 0 q0 -41 18 -72 l-18 -36 l107 -358 q-156 0 -197 340 l0 18 l18 0 l-18 36 l0 35 q6 37 36 37 ZM669 1454 q57 -21 232 -342 q73 -53 126 -53 l0 -18 q0 -27 -71 -53 q-72 11 -197 179 q-90 137 -108 232 q18 35 18 55 ZM1529 1435 l72 0 l0 -71 q-387 -491 -681 -610 q0 -17 -37 -17 l0 -18 l18 0 q104 50 377 71 q266 -6 430 -107 l0 -37 q-36 -283 -251 -1003 q-30 -18 -72 -18 q-142 224 -142 252 q-305 -42 -305 -91 l-55 0 q-18 0 -18 18 l-35 -18 l-35 0 q-36 0 -36 36 q52 125 502 125 l161 0 l0 -53 l-90 0 l36 -126 l36 0 q0 65 107 413 q37 233 72 233 l-19 36 l73 125 l0 36 q0 61 -341 90 q-424 -36 -788 -144 l-18 36 l0 18 q0 32 197 90 l377 232 q465 426 465 502 ZM1278 378 l90 0 l17 -90 l0 -18 l-124 18 q-105 0 -413 -71 l0 -18 l72 0 l0 -35 q0 -37 -37 -37 q-305 40 -305 107 l0 18 q6 36 37 36 l72 0 q452 90 591 90 Z" /><glyph glyph-name="uni60A8" unicode="&#x60a8;" d="M1118 1515 l53 0 l0 -54 l-124 -233 l0 -18 l18 0 q267 143 483 198 l53 0 q35 -5 35 -37 q0 -164 -357 -429 l0 -394 q0 -18 -18 -18 l18 -35 l0 -18 q0 -36 -36 -36 l-54 0 q-48 19 -142 179 q18 31 18 71 l17 0 q30 0 71 -107 l18 0 l18 215 l0 108 l-36 -19 l-35 0 q-27 0 -53 54 l0 36 q5 36 35 36 l18 0 q0 -54 35 -54 l18 0 q0 54 36 54 q0 60 -54 143 q-71 -8 -71 -54 l-17 0 l-37 18 q0 -35 -36 -35 l-18 0 q-44 0 -53 71 q103 309 197 358 ZM778 1426 q34 -18 53 -18 l0 -90 q-74 -74 -124 -179 q-61 -41 -108 -125 q89 0 89 -573 q-18 -35 -18 -53 l-71 0 q-18 358 -18 537 q0 35 -35 35 l-198 -161 q-71 27 -71 53 q351 331 446 484 l-16 0 q-91 -71 -108 -71 l0 53 q53 0 89 90 l90 18 ZM1243 1228 l36 -160 q49 0 250 250 l-18 0 q-247 -90 -268 -90 ZM974 888 l0 -54 q-125 -83 -125 -232 l35 0 l0 -18 q0 -25 -88 -71 q-46 0 -54 71 q29 286 179 286 q35 18 53 18 ZM1368 852 l180 0 q189 -93 250 -196 l0 -18 q0 -36 -36 -36 l-54 0 q-150 179 -304 179 q-31 -17 -72 -17 l0 53 q6 35 36 35 ZM1744 369 q111 0 144 -179 l35 0 l0 -53 q-40 0 -72 -18 q-89 25 -89 126 l0 53 q-72 0 -72 35 q0 36 54 36 ZM866 298 l55 0 q0 -299 179 -448 l107 0 q206 0 359 126 q0 148 -395 179 l-18 35 l0 18 q6 37 36 37 l126 0 q20 0 196 35 l0 -53 l-89 -37 q197 -116 197 -214 l0 -18 q0 -123 -393 -197 l-19 0 q-41 0 -72 18 l-35 -18 q-216 97 -216 287 q-35 0 -35 35 l17 215 ZM383 280 q37 0 73 -322 l71 -71 l36 0 q0 53 71 53 l0 -53 q-24 0 -88 -73 l-73 0 q-125 58 -125 431 q5 35 35 35 Z" /><glyph glyph-name="uni6211" unicode="&#x6211;" d="M1036 1554 q91 -37 121 -81 l0 -94 q0 -146 54 -443 q198 67 242 67 l13 0 q27 -4 27 -27 q-5 -31 -269 -121 q127 -485 188 -537 q157 334 188 336 l0 -14 q0 -31 -161 -416 q102 -202 282 -390 l14 0 q13 191 80 712 l27 0 q0 -806 -80 -806 l-41 0 q-188 165 -349 430 q-113 -161 -296 -161 l-94 27 l0 26 q74 -13 108 -13 q139 0 255 202 q-115 250 -188 577 q-255 -246 -255 -309 l0 -389 q-9 -229 -67 -229 l-54 0 q-100 0 -282 242 l0 14 l13 0 q116 -90 269 -135 q13 79 27 457 q-285 -215 -363 -215 l-27 40 l0 14 q0 14 242 161 q161 96 161 175 q0 10 14 80 q-297 -107 -336 -107 l-41 0 l0 13 q1 14 377 175 q21 269 53 269 q27 -4 27 -27 l0 -215 l14 0 l215 67 q-54 244 -54 417 l0 94 q0 51 -67 121 q13 0 13 13 ZM1480 1299 l13 0 q134 -76 228 -256 l0 -67 q0 -27 -26 -27 q-21 0 -215 309 l0 41 ZM861 1218 q54 -20 54 -40 l0 -14 q0 -37 -295 -80 q0 -17 -162 -41 l0 27 q241 148 403 148 ZM915 748 l0 -67 q32 4 148 121 l-27 0 q-121 -27 -121 -54 Z" /><glyph glyph-name="uni624B" unicode="&#x624b;" d="M857 1428 l396 0 q36 -5 36 -36 l0 -53 l-54 0 l0 -19 l36 -53 l0 -18 l-54 0 l-53 36 l-19 0 l37 -216 q126 31 126 54 q107 -23 107 -54 l0 -37 q-19 0 -54 -16 l-35 16 q-66 -35 -162 -35 l0 -36 q0 -40 18 -71 l-18 -37 l18 -71 q-18 -35 -18 -54 l53 0 l377 72 l0 35 l-125 37 l0 18 q6 36 36 36 q219 -76 233 -109 q0 -64 -288 -144 l0 18 q-268 -41 -268 -71 l0 -360 q0 -366 -109 -412 l-53 0 q-100 0 -163 108 l0 17 l55 0 q70 -54 108 -54 q71 124 71 216 l0 215 q0 91 -18 270 l-53 0 q-340 -53 -449 -53 l-73 0 q-35 0 -35 36 q0 47 108 70 q96 -17 161 -17 q225 53 341 53 l0 270 q-110 -35 -143 -35 q-126 17 -126 53 l0 54 q18 0 53 18 q60 -37 109 -37 l107 0 l0 307 q-40 0 -72 18 q-16 0 -16 -18 q-163 18 -163 53 q6 36 35 36 Z" /><glyph glyph-name="uni6301" unicode="&#x6301;" d="M1284 1577 l89 0 q3 -44 -15 -251 l225 90 l22 -36 q-160 -143 -240 -143 q10 -120 -10 -322 q17 0 244 71 l90 0 l4 -53 q-45 0 -87 -36 l25 -90 l9 -107 l19 0 q207 71 262 71 l53 0 l2 -18 q1 -53 -329 -143 l10 -124 l-9 -108 l21 -35 q3 -309 -17 -466 l21 -35 q-11 -144 -60 -144 q-35 0 -136 144 q-89 0 -96 89 l-19 0 l-6 71 q82 -48 212 -178 q24 370 -1 678 l-6 73 l-18 0 q-537 -215 -681 -215 l-17 0 l-4 54 l713 251 l-10 124 l11 90 l-18 0 q-580 -214 -609 -214 q-2 18 -20 18 l3 -37 l-18 0 q-36 0 -39 37 q-5 71 484 214 q-19 18 -56 269 q-75 0 -275 -144 l-73 0 l-3 36 q236 196 344 196 q-10 120 9 323 ZM650 1451 l54 0 q36 -174 194 -411 l1 -18 q4 -44 -170 -107 l14 -179 q6 -75 -2 -197 q41 -58 44 -107 q-40 0 -37 -430 q-24 0 -24 -143 l-55 0 q-54 18 -61 107 q49 50 44 340 l-18 0 q-100 -89 -154 -89 l20 -35 l3 -36 q-109 25 -115 106 q274 156 268 234 l-31 393 q-22 0 -347 -126 q-35 18 -75 18 l-4 55 q438 124 434 177 l-7 91 q-6 64 5 160 q-21 35 -23 54 l30 72 q-20 35 -22 54 l34 17 ZM705 1219 l25 -90 l8 -107 l19 0 q32 18 51 18 q-58 179 -85 179 l-18 0 ZM1104 252 l143 0 l90 -17 l3 -36 l-88 -17 l3 -36 q41 0 78 -72 q3 -36 -33 -36 l-227 161 l-1 18 q2 35 32 35 Z" /><glyph glyph-name="uni63A5" unicode="&#x63a5;" d="M1285 1559 q169 -90 180 -233 l1 -18 q3 -36 -33 -36 q-147 209 -177 214 l-3 37 q2 36 32 36 ZM567 1380 l35 0 q75 -29 83 -126 l-6 -161 l21 -35 l-10 -108 l7 -89 q58 0 192 54 l-39 53 q17 0 15 17 q146 -20 150 -70 q6 -75 -309 -162 l8 -107 l-11 -89 l18 0 q60 64 226 89 q240 128 239 143 l-61 90 q-15 179 111 179 l-2 35 l-19 0 q-173 -53 -281 -53 l-4 53 q3 36 32 36 l37 -18 q27 0 506 161 l21 -36 q3 -35 -190 -89 l2 -18 l35 0 l1 -18 q-151 -126 -144 -214 l3 -36 q9 -35 40 -35 q75 20 252 196 q-1 14 118 89 l36 0 l4 -53 q-117 -186 -454 -358 l-89 -18 l3 -36 q317 107 791 196 l53 0 q36 -4 38 -35 q3 -36 -299 -72 q-213 -89 -333 -89 l9 -107 q5 -60 -86 -251 q335 60 326 179 l35 0 q36 -6 39 -36 l2 -35 l-36 0 l2 -18 l108 0 l4 -53 q-184 0 -227 -305 q-61 -121 -55 -196 q137 -37 253 -37 l84 72 l36 0 l5 -53 q-39 -90 -137 -90 l-143 0 q-39 0 -183 53 q-89 -36 -123 -36 q-119 0 -403 341 q-53 0 -56 35 l-1 18 q-4 50 381 143 q103 289 99 340 l-18 0 l-594 -179 q18 -680 -35 -680 l-18 0 q-35 18 -55 18 l-2 18 q-7 91 20 215 q-2 18 -21 18 l9 340 l-17 0 q-201 -129 -237 -178 l-54 0 q-18 0 -19 17 l-35 -17 l-18 0 q-36 0 -38 35 q-10 125 187 125 q243 92 233 215 l-12 161 l-54 0 q-39 0 -70 -18 q-145 18 -148 53 l-2 18 q287 0 276 144 q-7 85 -16 411 q-20 34 -21 54 ZM1278 91 q3 -35 104 -178 l35 0 l116 339 l-18 0 q-230 -42 -226 -88 q3 -41 -11 -73 ZM1128 164 q3 -41 -65 -73 l-37 18 l-15 -35 l2 -18 q209 -232 322 -232 l-1 17 q-118 119 -127 233 l-7 90 l-72 0 Z" /><glyph glyph-name="uni641C" unicode="&#x641c;" d="M1357 1559 l54 0 q74 -24 85 -161 q-48 -76 -42 -144 l17 0 q271 54 317 54 q73 -18 80 -107 l3 -35 q-160 -448 -214 -448 l-106 0 l-2 17 l96 126 l-1 18 q-43 -46 -219 -161 q7 -93 -15 -251 q122 108 258 108 q93 -28 110 -233 q3 -36 -34 -36 l21 -36 l-110 -196 q215 -121 309 -268 l4 -55 q3 -35 -52 -35 q-24 0 -213 215 q-126 71 -149 71 q-119 -125 -295 -125 l-36 0 q-160 0 -174 179 q-11 129 95 143 l37 -17 l34 17 q227 -17 364 -72 l-2 19 q98 131 93 196 l17 0 l-20 36 l-3 36 q-2 18 15 18 q-19 34 -21 54 l-36 0 q-78 0 -221 -144 l-71 0 l-3 36 q-17 208 12 287 l-35 0 q-63 -55 -122 -55 l-89 0 q-4 50 -60 73 q-72 247 -81 357 q-43 -44 -171 -107 q-2 -198 -20 -198 q21 -34 22 -52 l-10 -91 l18 0 q35 0 30 54 l54 0 l3 -36 q-83 -69 -80 -108 l-18 0 q1 -16 19 -16 l-8 -126 l26 -322 q7 -91 -18 -214 l-55 0 q-35 0 -38 35 l-13 161 q-23 0 -97 107 q-172 135 -173 143 l-4 55 q18 67 268 214 q-10 126 6 144 q-20 34 -22 52 l8 126 l-18 0 q-224 -72 -262 -72 l-125 0 l-4 53 q378 89 381 143 l-10 126 q-3 40 12 73 q-1 17 -19 17 q-9 268 52 268 q121 0 198 -250 q18 0 19 -18 q271 233 374 233 l55 0 l23 -72 l-34 -19 l-38 19 q-22 0 -306 -196 q42 -66 48 -144 l6 -72 l17 0 q33 35 297 90 l16 36 l-7 90 l-36 -19 l-36 0 l-1 19 q103 58 95 160 l-1 17 q-3 33 -51 198 l33 18 ZM726 1398 l13 -162 q2 -17 -16 -17 l20 -35 q2 -18 -16 -18 q19 -19 29 -144 q138 69 136 89 l-3 36 q-118 125 -128 251 l-35 0 ZM1451 1058 q18 0 20 -18 q123 18 122 36 l36 -18 q103 0 134 126 q-18 0 -19 17 l35 0 l-20 35 q-300 -52 -298 -70 q-11 -95 -10 -108 ZM1456 1003 l-22 -177 l18 0 q99 89 136 89 l-4 53 q-90 0 -93 35 l-35 0 ZM1653 985 l-11 -88 q41 0 47 88 l-36 0 ZM1073 861 l7 -90 q59 -58 61 -88 q208 82 203 143 l8 124 q-18 0 -19 18 q-262 -77 -260 -107 ZM511 288 q86 -57 195 -214 q-7 314 -12 375 q-185 -130 -183 -161 ZM1100 91 l5 -71 q3 -26 58 -54 l71 0 q73 0 245 72 l-3 36 q-211 17 -305 17 l-71 0 Z" /><glyph glyph-name="uni652F" unicode="&#x652f;" d="M1077 1481 q23 0 99 -107 l3 -37 l-37 0 l-4 55 l-51 -36 l20 -36 l8 -89 l-11 -91 l36 0 l159 36 l-116 108 l-3 36 q243 -121 245 -144 l1 -18 q3 -29 -315 -107 q-14 -259 -60 -378 l126 0 l128 -18 l3 -36 q9 -120 -163 -430 q-18 0 -17 -18 q448 -324 619 -324 l5 -54 l-162 0 q-88 0 -278 108 l14 35 l-36 18 q1 -18 -17 -18 q-4 56 -209 144 q-141 -197 -380 -197 l-113 71 q8 0 69 19 l75 -19 q128 0 272 181 q-26 0 -155 142 q-222 102 -226 126 l-2 18 q242 0 412 -197 l38 -18 q170 349 167 378 l-19 0 q-54 0 -55 18 l-424 -90 q-35 0 -38 35 q2 37 32 37 l53 0 q-2 23 123 71 l125 0 l-12 144 q-1 17 24 144 l-6 71 q-44 0 -281 -89 l-160 0 q-25 0 -97 89 l-3 37 q106 -55 185 -73 l347 144 q6 219 17 252 q-21 35 -22 54 l67 53 Z" /><glyph glyph-name="uni6536" unicode="&#x6536;" d="M760 1408 l18 0 q53 0 53 -234 l0 -197 q0 -40 -18 -72 q0 -18 18 -18 l-36 -197 l36 -17 q126 61 126 90 q-25 0 -54 53 l0 18 l36 0 q96 0 125 -71 l0 -55 l-269 -161 q-23 -297 -35 -322 q0 -18 18 -18 l-35 -340 l-73 0 l-35 17 q35 305 53 628 q-196 -72 -321 -72 l-19 0 q-25 0 -54 54 q0 71 126 393 l-18 108 l0 18 l18 0 q25 0 54 -54 l0 -107 l-90 -323 l54 0 l250 108 q15 37 37 197 l-18 36 q36 150 36 394 l0 53 l17 91 ZM1297 1209 l18 0 l0 -88 q-71 -97 -71 -341 q206 90 393 90 q108 -18 108 -54 q0 -189 -197 -465 l-36 0 q111 -143 233 -287 l161 -107 l-37 -73 q-197 0 -411 360 l-35 0 q0 -101 -287 -198 l-72 0 q-71 109 -71 161 l54 0 q12 -89 53 -89 q105 0 287 215 l-179 125 q-61 0 -90 18 q0 -36 -36 -36 l-35 0 q17 107 53 107 l18 0 q198 0 340 -126 l18 0 q138 228 179 359 l-18 0 q-167 0 -358 -107 l-90 0 q-53 10 -53 125 q0 172 72 341 q0 35 89 70 Z" /><glyph glyph-name="uni65B0" unicode="&#x65b0;" d="M1287 1657 l18 -35 q-67 -108 -734 -126 l-70 0 l0 72 q158 19 196 36 l36 -17 l554 70 ZM1072 1443 l36 0 q0 -20 18 -54 q-51 -177 -375 -411 l0 -36 l53 36 q17 0 17 -18 q400 42 609 126 q0 88 73 88 q52 -18 52 -35 q-17 -35 -17 -53 q131 53 303 88 l37 -53 q0 -28 -340 -126 q-35 -290 -35 -375 q177 35 250 108 l17 0 q18 0 18 -19 l35 19 l144 0 l0 -55 q-179 -35 -179 -71 q0 -164 -18 -591 q0 -103 35 -358 q-58 -35 -106 -35 q0 10 -126 179 l0 71 l36 0 l53 -35 l0 17 q0 240 37 752 l-196 -72 q-19 0 -19 -18 l0 -124 q-65 -408 -162 -520 l-53 0 q-68 90 -143 143 l0 18 l18 90 q-289 108 -323 108 l0 -19 q0 -358 -53 -358 l-17 0 q-35 18 -54 18 l0 19 l18 107 q-18 34 -18 54 q18 33 18 53 l-18 36 q18 34 18 53 l-18 72 q18 31 18 72 l-179 -107 q-72 -126 -90 -126 l-71 0 l0 36 q0 90 214 286 l89 0 l37 -19 l18 37 l0 107 q-57 0 -395 -144 l-71 0 q-35 0 -35 37 l0 18 q0 36 501 179 l18 35 l0 179 q-334 -108 -519 -108 l0 91 l53 0 q137 16 393 178 l19 0 l0 36 q-217 161 -251 161 q-89 0 -89 35 l0 19 q89 70 89 107 l108 0 q0 -53 17 -53 q501 48 501 125 ZM625 1228 q58 -102 126 -142 q178 156 178 214 l-18 0 q-76 -36 -286 -72 ZM965 835 q-18 34 -18 53 q-108 -12 -108 -53 l0 -144 l19 0 l303 90 l73 0 l0 -37 q-23 -25 -395 -159 q-18 -124 -18 -197 l0 -90 l90 0 q54 0 197 -71 q0 71 36 71 q43 0 54 -144 q-19 -30 -19 -70 q80 -73 90 -73 l18 0 q90 368 90 412 l0 72 l-216 -72 l0 72 q234 53 234 125 q17 284 17 340 l-17 0 q-23 0 -430 -125 Z" /><glyph glyph-name="uni65B9" unicode="&#x65b9;" d="M973 1427 q141 -108 189 -108 l5 -71 l-54 0 q-99 0 -172 143 q2 36 32 36 ZM1769 1122 l6 -71 q-67 -37 -425 -73 l4 -53 q6 -70 -89 -234 l1 -18 q256 -50 268 -197 q-85 -364 -506 -627 l-72 0 q-54 0 -85 161 q14 58 96 144 q1 -18 19 -18 l-15 -36 l13 -163 l18 0 q378 275 441 539 q-6 71 -244 144 q-303 -310 -491 -360 l-18 0 q-37 0 -41 55 q24 81 98 126 l18 0 l1 -18 l-15 -37 l18 0 q121 54 404 342 l18 0 l-21 36 q-3 35 114 143 l-4 53 q-588 -72 -766 -72 q-144 11 -147 55 l-5 53 l18 0 q61 -36 110 -36 l18 0 q40 0 70 18 l37 -18 l36 18 l72 -18 q214 72 1046 162 Z" /><glyph glyph-name="uni6613" unicode="&#x6613;" d="M805 1444 l36 0 q25 -3 72 -91 q277 36 375 91 q76 0 91 -162 l-18 0 q0 -18 18 -18 q-18 -178 -18 -269 l0 -287 q13 0 107 18 q194 0 287 -124 l0 -18 q0 -753 -323 -753 q-94 0 -179 126 l18 35 q80 -3 161 -72 l54 0 q101 0 179 610 l0 54 q-12 54 -144 54 l-53 0 q-431 -53 -431 -162 q-58 -212 -124 -287 q0 -18 18 -18 q-36 -107 -73 -107 l-17 0 q-36 0 -36 36 l0 18 q0 53 144 358 l-18 0 q-317 -358 -466 -358 l-18 35 l0 36 q79 159 448 358 q0 47 197 216 l0 -37 l-18 -88 l89 0 q29 0 72 106 l18 0 l0 144 q0 152 18 448 q-322 -68 -322 -91 l0 -17 l17 -179 l126 19 l35 0 q54 -19 54 -108 q-228 -340 -323 -340 l0 71 q55 0 55 35 q-33 0 -55 55 l19 89 l0 72 l-108 0 l0 35 q0 54 108 54 q0 37 -72 395 l0 18 ZM966 960 l0 -179 l18 0 q0 39 108 179 l0 17 q-71 -17 -126 -17 ZM1432 620 l36 -55 l0 -18 q-43 -273 -358 -627 q-58 -71 -179 -71 l-36 0 l0 71 q146 0 250 216 q172 242 216 394 l-55 0 l0 17 q29 73 126 73 ZM573 279 l-18 -35 q35 16 53 16 l0 19 l-35 0 Z" /><glyph glyph-name="uni6682" unicode="&#x6682;" d="M796 1746 l72 0 q0 -117 161 -179 l0 -35 q0 -25 -161 -126 l0 -124 q0 -40 -17 -72 l35 -126 q-18 -35 -18 -53 l18 0 q180 72 215 72 l17 -37 q0 -53 -250 -124 l0 -179 q303 81 303 124 l-53 0 l0 18 q6 37 36 37 l17 0 l55 -37 q71 314 71 377 l-18 0 q-53 -49 -267 -108 l-19 0 l0 18 q88 87 178 125 q124 0 216 197 q0 32 89 36 l90 0 q36 -6 36 -36 l0 -36 q-14 -55 -197 -143 l-72 -375 l19 0 q302 141 338 178 q35 -18 55 -18 q0 46 178 90 q36 -6 36 -36 q-85 -98 -269 -143 q0 -60 -18 -305 l18 -250 q-18 -128 -18 -322 l-17 0 q0 -18 17 -18 q-115 -608 -214 -608 l-53 0 q-161 72 -161 196 l35 19 q81 -108 161 -108 q73 191 144 555 q0 18 -18 18 l18 90 l0 53 q0 35 -36 35 l-54 0 q-87 0 -519 -106 l18 -126 l0 -53 q251 53 322 53 l125 0 q36 -5 36 -36 l0 -17 q0 -40 -411 -72 q-53 -42 -53 -54 q42 -125 71 -125 q121 54 196 54 l73 0 q35 -5 35 -37 l-412 -143 l-18 0 q-36 0 -36 37 l0 54 l54 0 q-71 194 -89 375 q0 18 18 18 q-18 65 -18 196 l-35 -18 l-73 0 l-35 126 q35 0 35 53 q-17 54 -35 54 q-369 -143 -501 -143 l0 72 q416 113 536 196 l0 143 q-129 -26 -196 -71 l-108 0 q-25 0 -54 53 q117 200 341 501 l-18 0 q-254 -143 -305 -143 l-35 0 l0 55 q0 42 285 143 q90 53 90 71 q0 16 -17 143 q35 59 35 107 ZM851 1604 l0 -72 l53 0 l0 18 q-18 34 -18 54 l-35 0 ZM1458 1461 l36 0 l0 35 q-36 -6 -36 -35 ZM546 924 l0 -19 l18 0 q214 78 214 126 l-17 161 q17 0 17 18 l-17 0 q-87 -80 -215 -286 ZM1566 977 q0 -30 -197 -90 q-50 0 -125 -411 q-90 18 -90 36 q9 269 35 269 l19 0 l0 18 l-19 0 q-237 -126 -321 -126 l0 -214 q0 -36 107 -73 q63 0 554 108 q36 -18 55 -18 l0 89 q0 19 18 19 l-18 35 l0 125 l18 216 l-36 17 Z" /><glyph glyph-name="uni66F2" unicode="&#x66f2;" d="M1171 1391 q79 0 144 -251 l-36 -233 l268 0 q324 0 324 -179 q-136 -843 -377 -843 q-180 43 -251 198 l0 18 q14 0 107 18 q126 -139 126 -162 q103 0 234 467 q53 115 53 232 l0 55 q0 106 -143 106 l-252 0 q-107 0 -107 -161 l0 -54 q99 18 144 18 l0 18 l-108 36 l0 54 l18 0 q179 -36 179 -54 l35 18 l37 0 q36 -6 36 -36 l0 -54 q-359 -67 -359 -178 l0 -217 l107 0 l0 -71 l-17 0 q-178 -3 -484 -108 l-72 36 l0 -89 l-54 0 q-41 0 -54 89 q18 0 18 19 q-59 4 -143 447 q-95 286 -215 484 l0 54 l35 0 q68 0 180 -287 l90 54 l71 -18 q72 18 126 18 q0 113 -54 251 l36 18 l18 0 q27 0 125 -125 l0 -36 l-35 0 l0 -71 q268 0 268 71 q35 127 35 197 l-17 35 q17 35 17 55 q-12 0 -142 142 l89 19 ZM938 764 q18 -223 18 -234 l18 0 q46 0 197 55 l0 35 l18 179 q-18 0 -18 18 q-233 -27 -233 -53 ZM795 746 l-179 0 l-18 -108 q31 -179 71 -179 q160 18 198 35 l-18 91 q0 17 18 17 l-36 162 l-36 -18 ZM956 406 q14 -32 36 -216 l126 17 l36 0 l0 181 l17 89 q-86 0 -215 -71 ZM687 369 l-18 -36 q53 0 91 -250 l35 0 l0 53 l89 0 q37 0 37 36 q-37 0 -54 143 l-180 54 Z" /><glyph glyph-name="uni672A" unicode="&#x672a;" d="M1072 1571 l54 0 q0 -29 37 -73 q0 -18 -19 -18 q37 -91 37 -323 l-18 0 q18 -35 18 -53 l35 18 l36 0 q35 -6 35 -36 l0 -37 q-70 -18 -124 -18 q18 -225 18 -268 l71 36 l35 -18 q162 40 162 71 q-36 0 -36 36 l0 19 l36 0 q108 -11 108 -55 l0 -17 q0 -54 -359 -144 l-35 -53 l0 -73 q0 -40 18 -71 l0 -54 q101 0 484 -233 q95 0 232 -144 l0 -35 q0 -36 -53 -36 l-467 268 q-55 67 -214 126 l0 -341 l18 -108 q-43 -232 -91 -232 l-18 0 q-53 18 -53 107 l0 72 q53 66 53 126 l0 376 l18 126 q-376 -502 -610 -502 q-35 18 -53 18 l0 17 q0 27 197 90 q38 9 466 503 l0 18 q-587 -162 -771 -162 l-18 36 l0 35 l35 0 q105 0 754 161 l0 288 q-65 0 -449 -53 l-70 0 l0 53 q18 0 519 90 l0 376 l-18 91 Z" /><glyph glyph-name="uni67E5" unicode="&#x67e5;" d="M949 1587 l35 0 q126 -84 126 -340 l0 -90 l322 90 l0 35 q-44 0 -233 72 l0 17 l18 37 q340 -78 340 -143 q-84 -108 -430 -179 l18 -90 l0 -89 l-18 -37 q18 0 18 -17 l36 17 l287 0 q112 0 250 -53 l0 -71 q-194 -54 -233 -54 l-17 0 l0 36 q108 18 108 53 q-179 18 -269 18 l-144 0 q-53 0 -53 -322 l17 0 q167 53 376 53 q126 0 126 -88 q0 -126 -161 -413 q-113 -124 -197 -124 q-73 35 -108 35 q-97 -17 -161 -17 q-57 1 -232 357 q-22 0 -55 162 l37 17 q59 -17 71 -71 q215 70 215 107 l0 286 l-144 0 q-232 -251 -357 -251 l-36 0 l0 37 q183 104 537 482 l0 19 q-383 -72 -537 -125 l-18 35 q182 161 555 161 q-29 376 -89 376 l-36 0 l0 35 q6 37 36 37 ZM1020 907 q-89 -79 -89 -90 q126 42 126 71 l-37 19 ZM1092 369 q18 -53 35 -53 l162 18 l36 -54 q0 -102 -252 -269 l0 -18 l19 0 q49 36 233 55 q0 -19 17 -19 l197 305 l-18 35 q18 32 18 73 l-107 0 q-182 0 -340 -73 ZM859 316 q143 -250 161 -250 q179 118 179 178 l-18 0 q-32 0 -197 -36 l-17 36 l0 18 q5 36 35 36 q-18 35 -18 53 q-35 0 -125 -35 ZM1503 -168 l18 -35 l0 -54 q-53 0 -53 18 q-399 -72 -501 -72 l-126 0 l0 54 q18 54 108 54 q40 0 71 -18 q262 53 483 53 Z" /><glyph glyph-name="uni6B4C" unicode="&#x6b4c;" d="M1137 1514 l89 0 l18 -71 q-38 -18 -161 -37 l0 -53 q0 -60 18 -89 q-18 -200 -53 -359 l89 19 l72 0 l0 -72 l-72 -18 l0 -18 l19 -90 l-19 0 l19 -35 q0 -40 -19 -72 q0 -17 19 -17 l-19 -90 l0 -53 q0 -55 19 -55 q0 -32 -55 -429 l18 -35 q-31 -179 -107 -179 q-394 216 -394 232 q5 35 37 35 l17 -35 q35 18 53 18 l250 -126 l18 0 q37 90 55 788 l18 0 l-18 36 l0 89 q-710 -251 -770 -251 q-36 0 -36 37 l0 18 q0 49 394 142 l19 36 q-126 13 -126 233 q-40 0 -72 -18 q-71 27 -71 53 q0 40 125 72 q0 112 179 125 l0 -18 q0 -53 -72 -53 l0 -36 q21 0 198 36 q124 0 124 -126 q0 -37 -179 -250 q200 89 214 89 q18 297 18 448 l0 53 q-344 -107 -625 -107 l-36 54 q279 35 805 179 ZM1316 1299 l72 0 q0 -18 18 -54 q-18 -31 -18 -71 l18 -36 l-73 -322 q354 307 538 340 q89 -30 89 -90 q0 -240 -411 -715 l-73 0 l0 -36 q35 18 55 18 q358 -92 358 -250 l0 -108 q-102 0 -162 179 q-268 90 -268 161 l-18 0 q0 -163 -250 -251 l-19 0 l0 55 q198 154 198 322 l71 357 l-18 0 q-132 -161 -161 -161 q-34 18 -53 18 l0 36 q107 575 107 608 ZM600 1013 q36 -6 36 -36 q0 -17 -18 -17 q37 -74 37 -108 l17 0 q16 0 160 214 q-232 -13 -232 -53 ZM1476 834 q37 -127 37 -197 q0 -101 -37 -196 l37 0 q340 480 340 607 l0 18 q-82 0 -377 -232 ZM618 584 l0 -19 q0 -53 -71 -53 l0 -18 l18 0 l143 35 q232 -12 232 -70 l0 -90 q-75 -130 -250 -215 l-35 0 l-55 36 l0 -54 l-71 0 q-49 0 -108 197 q-71 0 -71 108 q201 143 268 143 ZM529 386 l0 -17 q53 -47 53 -161 l18 0 q13 125 72 125 l18 0 l0 -18 q-18 -34 -18 -53 q88 41 179 161 l-35 18 l-19 0 q-242 -55 -268 -55 Z" /><glyph glyph-name="uni6B64" unicode="&#x6b64;" d="M1160 1319 l18 0 q47 -152 50 -197 q-2 -413 -28 -520 l35 0 q308 175 296 323 l-91 36 l-1 18 l123 17 q56 -17 63 -108 l3 -35 q-46 -122 -162 -215 q-13 0 -256 -161 l3 -36 q9 -116 10 -358 q74 -15 75 -37 l622 55 l-1 18 q-46 0 -77 71 q-35 0 -38 37 q30 58 26 106 l217 -250 l2 -19 q8 -95 -744 -107 q-165 26 -173 126 q12 320 6 394 l-18 0 q-31 -18 -71 -18 l-36 0 q-35 0 -38 36 l-3 37 l71 0 q108 0 96 160 q1 429 -13 609 l34 18 ZM555 1032 l19 0 q36 -6 38 -36 l26 -322 q3 -41 -11 -72 q20 -34 21 -54 l-14 -35 q1 -18 18 -18 l-9 -89 l1 -18 q8 -37 38 -37 q11 41 93 181 l-19 0 l-68 -37 l-28 125 l53 0 q49 -35 93 -35 l7 -90 q12 -141 -360 -431 l-124 0 q-45 0 -102 144 q-2 28 72 680 q2 73 47 73 q36 -6 38 -36 l1 -18 l-53 -662 l8 -91 q99 0 258 126 l-43 89 q-8 319 -24 519 l-9 108 q2 36 33 36 ZM997 888 l40 -53 q4 -53 -256 -143 l-55 0 q-36 0 -39 36 q237 160 310 160 Z" /><glyph glyph-name="uni6DFB" unicode="&#x6dfb;" d="M1574 1470 l18 -36 l0 -36 q-170 -150 -179 -214 l0 -18 l18 0 l0 36 q17 0 17 -18 q58 36 89 36 l0 -36 q-232 -137 -232 -251 q-18 0 -18 -18 l0 -18 l161 0 q284 -18 323 -107 q0 -36 -55 -36 q-92 0 -268 72 q-53 -17 -53 -36 q0 -85 -17 -412 l88 18 q94 0 126 -161 q24 0 143 215 l107 0 q233 -235 233 -286 l0 -55 l-72 0 l-214 251 l-36 0 q-90 -143 -108 -268 l-35 -18 l-36 0 q-37 0 -108 232 l-35 19 l-36 0 l-17 -90 l0 -161 q0 -268 -108 -268 q-134 286 -216 286 q-142 0 -142 143 l0 71 q0 27 53 54 l18 0 q108 -73 108 -178 q95 71 161 71 l0 -18 q0 -14 -108 -108 l0 -18 q0 -9 108 -106 l18 36 l0 178 q0 18 17 18 q0 18 -17 18 l35 573 l-53 0 q-29 0 -161 -215 q-184 -193 -340 -233 q-265 -412 -412 -412 l-54 0 q-36 9 -71 90 q31 197 107 197 l0 -179 l53 0 q132 104 304 340 l-35 53 l0 19 l90 -19 q26 73 53 73 l18 0 l0 -36 q235 151 287 322 l-18 0 l-90 -36 q-35 19 -54 19 l0 53 l90 17 l35 0 q19 0 19 -17 q80 0 124 124 l-18 0 q-147 -71 -285 -71 l-19 36 l0 35 q66 84 234 143 q52 66 250 144 q0 45 36 90 l-17 0 l-413 -72 q-32 19 -71 19 l0 35 q0 36 680 125 ZM267 1310 l89 0 q340 0 340 -108 l0 -55 q0 -25 -53 -53 l-18 0 l-17 72 q17 0 17 18 q-226 53 -358 53 l0 73 ZM1073 1023 q204 65 232 143 l0 18 q-47 -47 -232 -143 l0 -18 ZM267 862 l54 0 l0 -36 q0 -13 -89 -90 l18 0 q40 0 71 18 q125 -42 125 -71 l0 -90 l-36 0 l-17 72 q-11 0 -234 -19 l-35 72 q0 49 143 144 ZM1001 235 q27 -71 53 -71 l19 0 q-37 43 -37 71 l-35 0 Z" /><glyph glyph-name="uni72D7" unicode="&#x72d7;" d="M1332 1470 l17 0 l0 -18 q0 -82 -322 -572 l35 0 q11 0 484 178 l37 -17 q31 17 71 17 q197 -28 197 -251 q18 -249 18 -321 q-18 -645 -90 -645 l-54 0 q-232 125 -232 303 q56 -1 215 -196 l17 0 q54 506 54 788 q-29 250 -161 250 q-512 -179 -556 -179 l-89 0 q-35 0 -35 37 l0 71 q204 334 394 555 ZM830 1381 l36 0 q0 -18 -18 -18 l18 -37 l0 -89 q-107 -142 -107 -251 q125 0 196 -519 l-17 -36 q17 -94 17 -106 q-48 -521 -215 -521 q-107 0 -197 358 l-35 0 l0 37 q197 202 251 519 q53 0 53 18 q-67 156 -108 161 q-150 -195 -232 -430 l-37 -18 q-25 0 -53 55 l0 53 l216 376 q-247 86 -269 161 l0 55 l18 88 l35 0 q0 -196 287 -196 l0 17 q91 323 161 323 ZM1367 736 q197 0 197 -125 l0 -18 q-55 -105 -124 -180 q88 0 88 -35 q0 -22 -305 -126 l0 -35 l36 -55 q0 -36 -36 -36 l-35 0 q-108 74 -179 413 q36 0 36 36 q-36 0 -36 36 q0 83 358 125 ZM1135 557 q0 -19 18 -53 l-18 -91 q18 -30 18 -70 l53 0 q251 210 251 285 l-72 0 q-250 0 -250 -71 ZM812 575 q0 -174 -214 -394 q92 -269 161 -269 q89 200 89 413 l-18 250 l-18 0 Z" /><glyph glyph-name="uni770B" unicode="&#x770b;" d="M1382 1467 l16 -32 q0 -39 -633 -98 l-98 0 l0 33 l715 97 ZM1106 1272 q38 0 48 -130 q165 33 195 33 l16 -33 l0 -16 q0 -28 -81 -49 q-31 17 -48 17 q-119 0 -146 -179 l0 -16 l16 0 q374 97 422 97 l0 17 l-33 0 l0 32 l114 0 q97 -10 97 -49 l0 -16 q-28 -42 -665 -178 q-269 -578 -714 -796 l-65 -16 q-32 16 -49 16 l0 16 q432 263 730 763 q-252 -65 -422 -65 l-81 0 q-32 0 -32 33 q600 73 600 162 q33 58 33 130 q-205 -65 -309 -65 l-32 0 q-33 0 -33 33 q423 97 423 129 l0 82 l-17 32 l33 16 ZM1414 753 q70 0 81 -227 q0 -186 17 -731 q0 -43 -82 -81 q-59 0 -162 97 l-162 0 q-24 0 -49 49 l0 33 l146 146 q0 -17 16 -17 l114 114 l0 16 l-211 0 q-23 0 -49 49 q0 18 260 227 l0 16 l-114 0 l-162 -16 l0 -113 q0 -439 -65 -439 l-16 0 q-33 0 -33 33 q10 373 33 373 l16 0 l0 114 l-49 -33 q-32 0 -32 33 q44 163 130 211 q269 146 373 146 ZM1057 558 l0 -49 q207 21 227 33 q65 -16 114 -49 l16 0 l0 33 l-16 162 l-33 0 q-55 0 -308 -130 ZM1236 233 q67 0 178 -16 l0 146 l-16 0 q-162 -116 -162 -130 ZM1268 -59 l130 -81 l0 -32 l16 0 l0 243 l-16 0 q-21 0 -130 -130 Z" /><glyph glyph-name="uni793A" unicode="&#x793a;" d="M1307 1391 q35 -17 54 -17 l0 -37 q0 -54 -125 -54 l0 18 l-449 -53 l0 17 q194 126 520 126 ZM1612 1051 l89 0 q0 -108 -107 -108 l-35 17 q-216 -19 -216 -108 q-14 -968 -72 -968 l-54 0 q-142 180 -142 252 l0 35 l17 0 q107 -63 107 -126 l18 0 l19 179 l0 467 l18 179 q-18 0 -18 18 q-690 -160 -754 -160 l-108 0 l0 53 q409 71 897 197 l0 36 l90 -18 q19 0 251 55 ZM1468 565 l72 0 q210 0 287 -394 l-54 -35 l-18 0 q-29 0 -107 268 q-145 125 -180 125 l0 36 ZM752 512 l18 -36 q-55 -79 -55 -126 l-36 0 l0 54 l-18 0 q-72 -179 -72 -215 q37 -6 37 -36 l0 -53 q-20 0 -55 -19 q-48 8 -71 90 q71 341 252 341 Z" /><glyph glyph-name="uni79BB" unicode="&#x79bb;" d="M1055 1577 l18 0 q238 -108 251 -143 l0 -71 l-37 0 l-268 161 l0 18 q6 35 36 35 ZM1896 1399 l0 -54 q-36 0 -36 -37 l-35 18 q-354 -58 -430 -107 q-18 0 -18 18 q-258 -71 -340 -71 q2 -38 161 -161 q74 72 161 197 l107 0 l0 -72 q-50 0 -161 -144 q19 0 19 -18 q-60 -35 -73 -35 q94 -176 126 -179 q168 97 232 197 l18 0 q-18 34 -18 54 q29 107 126 107 l0 -18 q-53 -208 -108 -627 q-18 0 -18 -17 l18 0 q183 17 287 17 q53 0 71 -161 q-150 -494 -215 -536 q-109 -54 -143 -54 q-179 79 -214 162 l0 53 l35 0 q75 0 179 -125 l37 0 q142 112 232 591 l-36 17 q-697 -124 -697 -197 q0 -30 -73 -214 l18 0 q305 28 305 214 l53 36 q35 -18 54 -18 l0 -18 q0 -40 -19 -70 q0 -91 108 -91 l0 -35 q0 -55 -71 -55 q-17 0 -125 90 q0 -64 -250 -143 l-55 0 q-107 0 -107 126 l72 196 l-18 0 q0 -35 -143 -71 l0 18 q-108 -43 -108 -72 q72 -243 72 -358 l0 -18 q0 -35 -36 -35 l-17 0 q-37 0 -108 393 q-166 -36 -179 -89 q18 0 18 -18 l-71 0 q-27 0 -54 54 q0 53 251 125 l-18 215 l35 18 l18 0 q53 0 53 -180 q358 42 358 250 l0 37 q-118 -54 -161 -54 l-18 0 q-161 0 -214 233 q-36 0 -36 35 l18 89 q-18 35 -18 55 l18 0 l-18 36 l0 35 l36 0 q39 0 90 -197 l35 0 q237 108 268 179 q-161 186 -161 234 l-733 -163 l-18 37 q0 75 930 232 q612 144 752 144 ZM840 648 q42 -108 72 -108 l125 0 l250 143 l18 0 q-54 121 -107 161 l-17 0 q-95 -103 -341 -196 ZM1556 826 q0 -59 -108 -90 q-17 -29 -17 -88 l-90 0 q-19 0 -125 -108 l18 -36 q-36 -44 -53 -179 q375 70 375 215 q18 93 18 214 l0 72 l-18 0 Z" /><glyph glyph-name="uni7D22" unicode="&#x7d22;" d="M1074 1640 l108 0 q0 -130 232 -251 l0 -72 q0 -34 -286 -108 q0 -35 -18 -35 l18 -35 q0 -61 -54 -144 l0 -18 l126 18 l18 0 q17 0 17 -18 l36 18 l591 0 q107 -11 107 -53 l0 -37 q0 -141 -358 -340 q-59 -30 -71 -107 q-35 -18 -53 -18 q35 -124 35 -215 l0 -18 q0 -35 -35 -35 q-25 0 -73 179 q-13 0 -269 -89 q37 -207 37 -501 l0 -18 q0 -94 -54 -108 q-90 42 -90 108 q35 18 54 18 q-18 241 -18 358 l0 106 q-161 -36 -232 -36 q-37 0 -37 36 l0 37 q0 20 233 232 l0 18 l-35 18 q-121 -54 -198 -54 l-88 0 q-36 0 -36 36 l0 35 l375 323 l-35 0 q-110 0 -573 -89 l-18 35 q0 72 554 143 q37 81 37 233 l0 17 q-242 -17 -358 -17 q-37 0 -37 35 q0 33 412 90 l0 36 q0 53 -17 53 q17 234 53 234 ZM1128 1567 l0 -214 q0 -36 54 -36 q113 36 142 36 q-174 214 -196 214 ZM1324 888 l-36 17 q-30 -17 -70 -17 l0 17 q-29 0 -197 -197 q-89 -51 -179 -143 l18 0 q375 67 375 251 l71 0 q28 0 55 -72 q0 -48 -143 -142 q0 -108 -108 -162 q-161 -140 -161 -161 l18 0 l394 144 l0 17 l-18 90 l53 35 l36 0 q18 0 18 -18 q62 5 251 179 q36 0 161 162 l0 17 q-60 0 -90 19 l-89 -19 q-19 0 -54 19 l-305 -36 ZM251 924 l35 0 q37 0 90 -448 q107 -49 107 -72 q0 -25 -53 -53 l-36 0 q-90 0 -161 430 l18 35 q-18 35 -18 54 q18 34 18 54 ZM1396 46 q153 -107 197 -107 l0 -54 q0 -25 -53 -53 q-126 49 -197 161 q0 25 53 53 ZM591 -43 q22 0 232 -90 l0 -17 q-18 -54 -106 -54 l-73 0 q-24 0 -89 89 l0 35 q6 37 36 37 Z" /><glyph glyph-name="uni7F51" unicode="&#x7f51;" d="M1592 1561 q286 0 286 -161 l0 -54 q-89 -1473 -89 -1595 l-53 -36 q-47 0 -162 270 q-36 0 -72 124 q162 -94 162 -161 l17 0 q37 509 73 682 l-18 35 l71 681 q0 131 -143 144 q-787 -144 -1057 -216 q-37 0 -37 -89 l-53 0 l0 53 q0 149 304 180 q477 72 771 143 ZM408 1185 l37 0 q98 -74 162 -413 l35 0 q89 0 270 -18 q51 257 124 360 l18 0 l37 -19 q-18 -165 -73 -358 q223 -54 395 -54 q89 484 144 484 l35 -72 l-18 -36 q0 -18 18 -18 l-54 -358 q180 -40 180 -90 q0 -35 -37 -35 l-179 0 q-16 0 -124 -270 q-69 -142 -144 -142 l-19 35 l0 18 l126 287 q0 29 37 72 l-55 35 l-71 0 l0 -35 l-54 0 q-202 107 -216 107 q-144 -359 -304 -359 q-36 0 -36 37 l0 17 l108 72 q0 35 125 214 l0 19 l-54 0 l-108 18 q-30 -18 -71 -18 q0 18 -17 18 l-18 -37 l0 -196 q0 -107 -73 -341 l-71 0 q-37 0 -37 37 l0 35 q0 18 19 18 l-19 36 l0 125 l55 0 l0 -17 q-18 -35 -18 -55 l36 0 l0 18 q18 285 18 340 l-126 37 q-35 -18 -53 -18 l-18 36 q0 50 179 71 l0 18 l-91 395 Z" /><glyph glyph-name="uni85CF" unicode="&#x85cf;" d="M750 1532 q108 -23 108 -53 l-35 -18 q-32 18 -73 18 q0 -52 55 -232 q95 0 393 88 l0 18 q-107 0 -107 36 l35 19 l125 0 q0 124 55 124 q35 -17 53 -17 l0 -107 q117 35 161 35 l36 0 l0 -54 q0 -18 -250 -124 q-55 -98 -55 -162 q93 54 180 54 l19 0 l0 -36 l17 0 l71 53 l54 0 q32 0 108 -125 l0 -53 l-73 0 q-18 0 -71 70 q-53 0 -53 -52 l-36 0 q-36 0 -36 35 l19 35 q-143 -53 -181 -53 l287 -751 l36 0 q0 76 54 232 l-19 36 q27 72 55 72 q34 -18 53 -18 l-18 36 l0 35 l71 0 q0 -18 19 -53 q-143 -329 -143 -466 q163 -214 197 -214 q-54 89 -54 143 l0 36 q6 35 36 35 l18 0 l143 -393 l-37 -18 l-53 0 l-322 303 q-89 -214 -161 -214 l-54 0 q-71 161 -71 322 q-143 -60 -143 -90 q0 -71 -72 -71 q0 27 -54 53 q-74 -88 -214 -88 l-18 0 l0 18 q0 53 53 53 q-35 282 -35 375 q17 124 17 198 l-35 0 q-37 0 -90 -375 q-152 -434 -250 -448 l-19 0 q-49 0 -142 71 q-44 0 -108 214 q47 94 71 324 q19 0 19 16 q-37 0 -37 37 q84 52 144 250 q-18 32 -18 72 l36 18 l35 0 l0 -35 q322 175 322 196 q0 36 55 36 q-55 125 -73 125 q-314 -89 -375 -89 l-18 35 l0 17 q0 44 340 126 l0 18 q-35 142 -35 215 q0 90 88 107 ZM858 1139 l54 -108 q34 18 54 18 l71 -35 l108 125 l0 71 q-31 0 -287 -71 ZM805 746 l0 -37 q6 -36 35 -36 q76 197 251 197 q83 -54 143 -54 q0 20 -53 162 l-18 0 q-211 -122 -340 -162 q-18 -30 -18 -70 ZM465 709 l17 -71 q-17 -35 -17 -54 l17 0 q215 83 215 125 l18 72 l-18 0 q-133 -72 -232 -72 ZM984 746 l0 -18 q107 18 107 53 l-72 0 q-35 -6 -35 -35 ZM1181 709 l0 -18 l17 -89 q10 0 71 18 q35 -18 55 -18 q-44 126 -73 126 q-30 -19 -70 -19 ZM947 620 l0 -90 l198 72 l-37 71 q-118 -53 -161 -53 ZM357 388 l0 -126 l18 0 q102 77 251 107 q36 165 36 196 l-36 0 q-233 -102 -233 -177 l-36 0 ZM1324 530 q0 -30 -161 -161 l124 0 l0 -54 q-124 -11 -124 -53 l0 -72 l18 0 q174 90 196 90 l0 -18 l-18 -90 q0 -45 36 -232 l36 0 q0 41 89 232 q-161 263 -161 358 l-35 0 ZM930 404 l0 -107 l17 0 l269 198 l0 17 l-18 0 q-268 -83 -268 -108 ZM286 11 q89 -93 89 -126 l71 0 q130 247 161 377 l-18 0 q-71 -12 -232 -125 l-71 -126 ZM930 83 l17 0 q60 36 108 36 l0 89 l18 37 l-18 0 q-117 0 -125 -162 Z" /><glyph glyph-name="uni8BA9" unicode="&#x8ba9;" d="M473 1337 q221 -72 323 -72 l70 0 q0 -18 18 -53 l-18 -90 l-70 71 l-126 0 q-92 0 -215 108 l18 36 ZM1406 1265 l53 0 l18 -72 q-18 -357 -18 -484 q0 -19 -18 -54 l18 -36 q-18 -98 -18 -143 l36 0 q99 198 448 341 l36 0 l18 -36 q-157 -121 -341 -197 q-134 -234 -251 -234 l-18 90 l0 323 q0 41 -18 72 q33 46 55 430 ZM436 835 q287 0 287 -323 q0 -98 -53 -431 l287 323 q75 175 232 340 l36 0 l0 -16 q-320 -543 -502 -736 l-71 -53 q-73 29 -73 124 q55 340 55 449 l0 72 q0 154 -216 179 l-36 -19 q-97 19 -161 19 l0 54 l18 0 q74 0 197 18 ZM1136 332 l18 0 q0 -49 -36 -107 l54 -36 q82 0 413 -18 l286 18 q36 -18 54 -18 l0 -90 l-90 19 q-26 0 -287 -19 q-502 0 -502 108 q0 93 90 143 Z" /><glyph glyph-name="uni8BCD" unicode="&#x8bcd;" d="M1474 1452 q17 0 17 -18 l126 18 l108 0 q35 -5 35 -36 l36 18 q126 -63 126 -178 q-23 -519 -55 -519 l37 -179 q0 -18 -18 -18 l18 -90 l0 -142 l-18 -108 l18 -36 l-18 -107 q0 -45 36 -197 l-55 -36 l-35 0 q-59 0 -126 447 q-18 0 -18 37 l37 0 q35 0 35 -73 q36 0 36 36 l0 251 q0 532 36 769 q-72 72 -268 90 q-154 -35 -269 -35 l-18 35 l0 35 q102 0 197 36 ZM561 1256 l36 0 q109 0 197 -126 l0 -35 l-18 0 q-215 83 -215 161 ZM1313 1077 l35 0 q143 0 143 -89 l-35 -18 q-53 18 -53 35 q-213 -35 -501 -143 l0 18 q0 35 -37 35 l0 -35 l-36 0 l0 53 q62 0 216 90 q50 0 268 54 ZM293 827 q322 0 322 -162 l0 -196 q0 -66 -18 -161 l0 -18 l18 0 q0 55 179 268 q41 17 161 214 l71 0 q0 -18 19 -18 l-19 -35 l0 -18 q344 108 430 108 l18 0 l90 -19 l0 -71 q-124 -154 -269 -305 q143 0 143 -35 q0 -36 -35 -36 q-40 0 -73 18 q-178 -28 -178 -71 q0 -55 -36 -55 l-18 0 q-50 0 -143 376 l0 19 q-34 -22 -322 -448 q-31 -18 -72 -18 l-17 0 l-55 36 q72 295 72 483 q-11 54 -143 54 l-143 0 l0 53 l18 37 ZM1045 611 q35 -53 71 -197 q65 7 305 269 l0 18 l-73 0 q-173 -90 -303 -90 Z" /><glyph glyph-name="uni8BE5" unicode="&#x8be5;" d="M1118 1461 l251 0 q303 -11 303 -90 l0 -53 q-84 0 -126 53 q-16 0 -16 -17 l-90 17 l-126 0 q-18 0 -18 18 q-17 0 -17 -18 l-126 18 l-35 0 l0 72 ZM707 1336 q253 -98 285 -179 l0 -18 l-53 0 q-36 0 -36 35 l-35 -17 q-179 78 -179 161 q18 0 18 18 ZM1619 1192 l90 -18 l0 -17 q0 -161 -591 -554 l0 -18 l17 0 q347 161 609 232 l0 -18 q0 -105 -322 -340 q0 -23 -161 -161 l-143 -232 l-72 0 l0 18 q0 124 233 357 q357 277 357 305 l-17 0 q0 -40 -644 -269 l-54 0 q-44 -134 -214 -358 q-64 0 -90 143 q53 239 53 411 q0 36 -36 36 l-71 0 q-182 -18 -286 -18 q-18 35 -18 55 q86 53 269 53 l106 0 q126 0 126 -214 l0 -18 q0 -19 -18 -19 q0 -18 18 -18 q-18 -135 -35 -178 l17 0 q51 132 322 376 l0 18 l36 0 l0 -37 l-54 -71 l0 -18 q550 421 590 501 l-125 0 q-521 -143 -590 -143 l-18 35 l0 18 q0 49 627 161 l89 0 ZM1833 620 l53 0 l0 -17 q-85 -253 -643 -788 q-34 18 -54 18 l0 54 l483 536 q0 41 125 144 q0 53 36 53 ZM1672 227 l18 0 q127 0 251 -340 l-55 -35 l-16 0 q-60 0 -143 232 q-18 0 -91 88 l0 18 q6 37 36 37 Z" /><glyph glyph-name="uni8BF7" unicode="&#x8bf7;" d="M1475 1693 l18 0 q27 0 55 -71 l-18 -37 q0 -12 18 -106 l-18 -90 q106 -18 106 -54 l0 -17 q0 -28 -71 -71 q-17 34 -17 53 l-18 0 q0 -19 -18 -53 q18 -35 18 -55 q-18 -34 -18 -53 l53 0 q41 0 71 18 q73 -27 73 -54 l0 -35 q0 -21 -126 -90 l-35 0 l0 18 q0 36 53 36 l0 17 l-36 0 q-53 -17 -53 -35 q18 -35 18 -54 l-37 18 q0 -64 -18 -161 l18 0 q308 61 340 90 l-35 71 q17 0 17 18 q119 -48 144 -108 q0 -60 -501 -179 l0 -35 q-19 0 -54 17 q-375 -57 -375 -232 l-214 -428 l-126 0 q-37 169 -37 214 q37 299 108 537 q-43 35 -71 35 q-63 0 -448 -89 l0 18 q0 117 483 142 q47 0 107 -71 q-13 -157 -53 -197 l0 -18 l18 0 q63 64 321 144 q33 -18 73 -18 q134 54 214 54 l0 125 l18 89 l-357 -108 l-54 0 l0 37 q8 46 340 143 q64 29 89 107 l-18 35 l0 18 l18 37 l-36 0 q-13 0 -107 -18 q-72 26 -72 53 l0 35 q233 18 233 54 l0 54 q0 41 -18 72 q18 44 35 178 ZM473 1408 l55 0 q173 -55 303 -55 l90 0 q36 -5 36 -35 l0 -35 l-126 -18 q-137 0 -393 88 l0 18 q6 37 35 37 ZM1654 638 l55 0 q86 0 106 -340 l-17 -71 l17 -72 q0 -39 -17 -197 q17 -152 17 -232 q0 -94 -89 -143 l-17 0 q-23 0 -126 143 q-32 0 -53 161 l35 0 q36 0 107 -161 l37 0 l0 393 q-85 -32 -430 -71 l-18 -36 l0 -89 l18 -179 l-36 -18 l-18 0 q-26 0 -54 54 l0 107 l19 107 q0 18 -19 18 l19 89 l0 72 l-73 72 l0 36 l108 70 q-17 99 -17 144 q66 58 446 143 ZM760 585 q-18 -269 -18 -395 l0 -53 q250 378 250 430 l-18 0 q-116 -35 -159 -35 q-19 33 -19 53 l-36 0 ZM1297 424 q18 -35 18 -55 l36 19 l303 0 l0 -72 l-53 0 q-132 0 -322 -53 l0 -73 q36 0 36 -35 l89 0 q60 0 89 18 q169 -23 216 -36 q0 29 17 214 q0 113 -54 216 q-375 -101 -375 -143 Z" /><glyph glyph-name="uni8C01" unicode="&#x8c01;" d="M1417 1557 l53 0 l1 -18 q-193 -258 -282 -269 l1 -17 l40 -53 l40 -538 q246 72 243 107 l-16 215 q-115 -53 -157 -53 l-37 0 q-36 0 -39 35 q202 144 438 144 l53 0 q36 -6 38 -36 l4 -55 l-18 0 q-18 0 -54 19 l-107 -19 l-35 0 l19 -250 q123 54 247 54 q19 -33 20 -54 q-21 -70 -48 -70 q-45 35 -73 35 q-141 -33 -138 -72 l17 -232 q236 35 281 72 l36 0 q37 -7 39 -37 q-31 -71 -102 -71 q-1 18 -20 18 q2 -36 -227 -71 l1 -251 q30 18 158 35 q181 -26 186 -89 l-15 -35 q-14 0 -110 17 q-342 -17 -444 -17 l-22 35 l-1 18 q3 36 33 36 q14 0 108 -18 q31 18 71 18 q-35 40 -69 196 l-18 0 q-230 -19 -225 -88 q-25 -134 -23 -162 q29 -156 30 -178 q-17 -236 -5 -395 l-55 0 q-25 0 -57 54 l4 645 l-27 124 q73 0 29 591 q-1 19 -23 54 l11 107 l-8 107 q-3 37 -40 37 q-62 -31 -203 -144 l-18 0 q-25 0 -58 54 q-3 44 68 53 l-1 18 q-304 0 -454 72 q17 31 14 71 l35 0 l3 -36 q430 -23 435 -88 l473 375 ZM1400 1324 l107 0 q71 0 234 -36 l4 -53 l-125 0 q-112 0 -254 53 q3 36 34 36 ZM1113 842 l4 -55 q-101 -149 -246 -536 q-59 -177 -94 -179 l-35 0 q-62 0 -181 501 q-110 41 -111 53 q-57 -35 -105 -35 l-1 18 l-36 -18 l-53 0 l-2 35 q14 55 104 55 l178 0 q93 0 215 -466 l17 0 q77 306 346 627 ZM1276 341 l53 0 q212 48 209 89 l-2 35 l-33 179 q-80 -48 -226 -71 q11 -145 -1 -232 Z" /><glyph glyph-name="uni8FD8" unicode="&#x8fd8;" d="M1413 1364 l36 -54 l0 -72 q0 -95 -250 -359 q113 0 196 -179 q98 36 377 72 l35 -54 q-17 -35 -17 -55 l-18 0 q-305 -35 -341 -35 l-36 0 q0 -152 -89 -377 l-91 18 q91 294 91 323 q0 119 -126 250 q-44 -3 -286 -268 l-73 -53 l-53 0 l0 53 q0 22 161 144 q430 452 430 555 l0 18 q-221 -31 -448 -89 l-17 0 l-91 18 l0 18 q0 46 503 126 l107 0 ZM373 915 l125 -18 l144 0 l0 -71 l-108 -19 l-53 0 q-93 0 -108 54 l0 54 ZM355 682 l36 0 q107 -11 107 -54 l0 -36 q0 -53 -71 -179 q179 -93 179 -162 q-17 -34 -17 -53 l71 0 q408 -180 860 -180 q212 72 342 90 l0 -18 q-173 -179 -484 -179 l-72 0 q-163 0 -896 270 l0 35 q0 35 106 35 q0 42 -143 91 q-36 43 -36 71 q73 108 73 197 q-55 0 -55 36 l0 36 Z" /><glyph glyph-name="uni8FDB" unicode="&#x8fdb;" d="M1378 1479 l53 0 q54 -161 54 -269 l0 -215 l-18 -36 q287 -29 287 -72 q-10 -42 -287 -179 l18 -35 l0 -126 q0 -40 18 -71 q0 -18 -18 -18 l18 -90 l0 -179 l-89 0 q-15 0 -55 55 l19 179 q-19 221 -19 232 q19 0 19 18 l-19 0 q-214 -36 -214 -108 q0 -215 -107 -286 l-19 0 q-35 0 -35 36 q0 46 71 232 l0 37 l-89 -19 l-36 0 q-93 0 -108 54 q11 107 55 107 l35 0 l-18 -89 l179 18 q0 64 36 304 l-143 0 q-36 0 -36 36 q59 36 108 36 l71 0 l0 18 q0 103 -108 161 q-31 -18 -71 -18 q0 13 -18 108 l36 18 q269 -71 269 -252 q161 50 161 90 l18 36 q-18 97 -18 161 l0 126 ZM698 1138 q81 -34 88 -72 q0 -35 -35 -35 l-90 18 l-89 -18 l-37 18 q-33 -18 -53 -18 l-35 53 q5 36 35 36 l108 0 l108 18 ZM1180 852 l19 -36 l-19 -125 l19 0 q84 0 179 90 l0 161 l-19 89 q19 0 19 18 l-19 0 q-160 0 -160 -197 l-19 0 ZM1467 887 l18 -35 l-18 -36 q18 0 18 -17 q161 65 161 88 q-124 0 -124 18 q-35 -18 -55 -18 ZM608 887 l35 -53 l0 -35 q-178 -196 -178 -234 l17 0 q72 -49 108 -233 l-55 -107 l0 -18 l19 0 q181 0 537 -197 q170 -35 358 -108 q319 37 411 37 q36 -19 55 -19 q-10 -79 -484 -124 q-421 108 -770 304 q-36 0 -250 36 l-90 -18 l-36 53 l0 18 q0 36 162 55 q0 30 53 88 l0 72 q-125 152 -125 196 q70 137 160 181 l0 18 l-16 0 q-45 -18 -198 -18 q0 83 287 106 Z" /><glyph glyph-name="uni8FDE" unicode="&#x8fde;" d="M1250 1552 l125 0 q33 -125 225 -125 l36 0 l3 -36 q-53 0 -331 -126 q-103 0 -140 -269 l-93 -179 l1 -18 q15 0 281 71 l-18 234 l36 0 q-21 34 -23 54 q16 34 14 54 l72 0 q5 -63 281 -144 l5 -72 q3 -33 -256 -161 l22 -268 q146 70 209 70 l36 0 l4 -53 q3 -31 -242 -108 l4 -53 q5 -61 25 -91 q-2 -196 -38 -196 l-36 0 q-24 0 -203 305 l-162 0 q-35 0 -38 35 l-1 18 q2 36 32 36 l108 0 l213 18 l-4 54 q-3 40 -24 71 l15 36 q-20 72 -41 72 q-234 -72 -300 -72 q-47 6 -77 90 q149 374 146 413 q-103 -72 -372 -72 l-21 35 q446 44 435 179 q65 195 92 198 ZM1276 1445 l-15 -36 l8 -90 q52 40 173 72 l-2 18 q-27 0 -164 36 ZM1445 1122 l16 -198 l172 90 l-2 18 q-163 32 -168 90 l-18 0 ZM532 888 l18 0 q113 -62 121 -160 q-66 -158 -113 -161 l-5 53 q31 53 44 124 q-94 55 -100 126 l35 18 ZM544 512 q89 0 160 -197 l3 -36 q6 -74 -80 -143 q456 -305 600 -305 l161 0 q53 0 436 126 q-45 -178 -554 -234 q-281 0 -636 322 q-165 58 -168 91 l-3 35 q3 36 32 36 l18 0 q18 0 20 -18 q105 36 102 73 l-4 53 q-25 143 -138 143 l-1 18 q-3 36 52 36 ZM1304 441 q100 -126 116 -126 l-10 126 l-106 0 Z" /><glyph glyph-name="uni9009" unicode="&#x9009;" d="M1325 1506 l90 0 q17 0 71 -108 q55 0 55 -36 l0 -54 q-163 -125 -163 -197 q-36 -230 -36 -322 q46 0 91 -36 q-30 -194 -161 -340 l0 -18 q34 18 53 18 q47 0 233 -196 l125 0 q106 0 215 125 l18 0 l0 -54 q-56 -84 -179 -144 l-126 0 q-168 0 -286 198 q-31 18 -71 18 l-18 0 q-107 -113 -179 -161 l-54 0 l0 53 q314 282 339 484 q-420 -126 -446 -126 l-19 36 q7 32 359 143 q53 150 53 286 l0 36 q-213 -117 -375 -125 l-55 0 q-30 0 -88 107 q35 236 35 323 q-18 34 -18 53 l53 0 q32 0 55 -89 l-37 -233 q18 -31 18 -72 l126 0 q54 0 251 108 q41 0 71 323 ZM1397 1398 l0 -126 q58 53 89 53 q-53 46 -53 73 l-36 0 ZM556 1005 l35 0 q126 -62 126 -91 q0 -35 -37 -35 q-124 60 -124 89 l0 37 ZM466 700 l18 -37 q-18 0 -18 -17 q116 -65 179 -323 l0 -18 q-47 -124 -161 -124 l0 -37 q81 0 412 -196 q146 -71 411 -71 l71 0 q40 0 72 -18 q35 18 54 18 q11 0 233 -18 l0 -18 q0 -45 -465 -72 q-55 17 -55 35 l-35 -18 q-308 0 -663 251 q-215 96 -232 144 l0 18 q0 25 53 53 l179 -17 l54 70 l0 18 q-63 269 -215 269 l0 36 q0 35 108 72 Z" /><glyph glyph-name="uni9053" unicode="&#x9053;" d="M1511 1667 l18 0 q37 -5 37 -36 l0 -36 q0 -69 -91 -161 l0 -18 l18 -35 q-25 0 -304 -269 l53 0 l180 72 l18 0 q25 0 53 -54 q0 -139 -269 -304 l90 18 q197 0 197 -340 q55 0 55 -37 l0 -18 q-91 0 -91 -88 q0 -61 -17 -90 l35 17 l36 0 l0 -53 q-71 -65 -107 -250 q-108 0 -108 107 q-137 -72 -251 -107 q-71 26 -71 53 l0 161 q0 54 18 54 l-18 90 l0 268 l-18 89 l-90 -18 l-35 0 l0 36 q0 24 304 162 q149 76 250 214 l-18 0 q-280 -71 -554 -179 l-53 0 l-18 71 q58 37 89 37 q0 -18 17 -18 q399 243 466 411 q41 0 126 143 l17 0 l-17 36 q26 72 53 72 ZM884 1434 q33 0 90 -161 q30 -36 72 -36 l0 -36 q0 -35 -36 -35 q-144 0 -179 197 l0 18 q0 25 53 53 ZM438 844 l17 0 q34 -37 341 -72 l0 -72 l-18 0 q-340 0 -340 107 l0 37 ZM1082 665 l0 -35 l35 16 l72 0 q127 0 196 -35 l0 89 q0 46 -71 54 q-232 -25 -232 -89 ZM1100 557 l-18 -90 l0 -71 q46 53 303 126 l0 35 l-285 0 ZM455 504 q106 0 143 -108 l-54 -125 q37 -144 37 -305 l-37 0 l0 -36 q75 0 358 -106 q326 -108 412 -108 l126 0 q411 28 411 71 l35 0 l0 -35 q-151 -144 -446 -144 l-18 0 q-339 0 -967 269 q-104 0 -143 71 q0 37 179 55 q-36 285 -36 303 q42 0 54 125 l-89 0 l-37 18 q0 -18 -18 -18 l0 55 l90 18 ZM1082 92 q26 0 285 107 l0 54 l18 178 l-18 0 q-285 -100 -285 -196 l0 -143 Z" /><glyph glyph-name="uni9080" unicode="&#x9080;" d="M1082 1577 l18 0 q35 0 71 -108 q-128 -174 -357 -285 l-18 0 l0 -37 q45 0 88 -36 q236 197 395 197 q25 0 53 -54 l0 -53 q0 -81 -53 -340 l18 -35 q-55 -121 -55 -143 l-89 0 l-18 70 q36 0 36 36 l-89 0 l0 -53 q36 0 71 -90 q185 0 215 180 q198 311 198 411 l16 0 q36 -6 36 -36 l0 -72 q0 -67 -160 -393 l17 0 q107 71 197 71 l18 0 l90 -18 l0 -71 q0 -101 -144 -358 q167 -72 215 -143 l0 -35 q0 -36 -35 -36 l-36 0 q-31 30 -214 142 q-89 -161 -251 -161 q-35 19 -54 19 q-120 -229 -161 -233 l-108 0 q-53 18 -53 107 q6 36 35 36 q36 0 36 -54 l18 0 q138 121 161 233 q26 0 53 53 l0 72 q-232 0 -340 -196 q-119 -72 -142 -72 l-19 35 q200 217 430 430 l-18 0 l-554 -197 l-90 0 l0 36 q0 36 556 214 l0 18 q-55 69 -55 108 q-60 0 -126 -53 q-25 0 -53 53 l0 17 q0 17 36 144 l0 36 q-24 178 -179 178 q0 104 214 215 q0 39 163 143 l-19 90 l36 18 ZM921 1058 q6 -36 36 -36 q116 36 161 36 l89 -18 l0 71 q0 49 35 108 l-18 0 q-64 0 -303 -161 ZM295 1058 l35 0 q18 0 18 -18 l35 18 q164 -47 198 -125 l0 -36 l-54 0 q-232 102 -232 125 l0 36 ZM1010 950 l-53 0 l0 -53 l-18 -90 l179 54 q34 -17 53 -17 q0 43 18 142 l-36 0 q-16 0 -143 -36 ZM313 771 l125 0 q137 0 161 -71 l0 -72 q-166 -219 -216 -232 l0 -18 q162 -145 162 -251 l0 -71 q690 -250 734 -250 q45 0 625 107 l0 -18 q-251 -197 -607 -197 l-55 0 q-65 0 -786 287 l-126 124 l0 18 q6 37 36 37 l54 0 l0 -37 l18 0 l0 55 l-143 196 q51 105 178 215 q18 23 18 90 q-35 0 -178 35 l0 53 ZM1403 610 l-88 0 q0 -24 -162 -178 l89 17 l73 0 q0 -31 35 -89 q-35 -116 -35 -161 l196 126 l0 35 l-89 18 l-37 -18 l0 36 q0 25 55 53 l35 0 l91 -17 q124 251 124 286 l-36 18 q-78 0 -251 -126 Z" /><glyph glyph-name="uni9177" unicode="&#x9177;" d="M1556 1425 l36 0 q3 -37 88 -197 q1 -21 114 -107 l2 -18 q2 -32 -185 -143 q-6 -151 -34 -251 q302 90 351 90 l6 -71 q-37 -55 -50 -55 l-37 18 q-629 -193 -623 -268 q-39 -447 -124 -447 l-17 0 q-141 90 -205 90 q-100 -55 -246 -55 l-21 37 l-4 53 q281 48 278 89 l38 -18 l144 0 l3 -36 q-55 0 -52 -35 l1 -17 l36 0 q23 0 68 267 l-17 0 l14 35 l-3 37 l-89 0 q-357 -161 -399 -161 l-17 0 l-21 36 l-4 53 q40 0 70 18 q-16 32 -57 251 l18 0 q-20 35 -22 53 q-55 -36 -104 -36 l1 -17 q6 -75 34 -197 q2 -19 -16 -19 l25 -88 l26 -323 q2 -35 -34 -35 l-36 0 q-35 0 -37 35 q-2 18 16 18 l-25 90 l-26 322 q-61 358 -171 358 l-5 53 l15 36 q111 -31 191 -161 q98 54 139 54 l-1 18 q-2 20 -51 197 l50 35 l36 0 q43 -100 52 -214 q144 0 189 339 l34 18 q36 -5 38 -35 l5 -53 q-26 -129 -25 -144 l2 -19 q170 55 228 55 q2 -26 59 -55 l-2 19 q-1 18 -20 18 q19 218 2 429 l35 17 q54 -17 61 -106 l16 -198 l-8 -124 l35 0 q197 0 186 143 q-26 322 46 322 ZM1012 1300 l21 -36 l1 -19 q3 -35 -558 -177 l-72 0 l-5 53 q421 143 613 179 ZM1611 1192 l10 -124 l18 0 q-3 35 32 35 l-2 18 q-38 43 -40 71 l-18 0 ZM1298 852 l-92 35 l21 -35 l16 -197 l-11 -88 q296 106 292 161 q-9 116 2 177 l-16 0 q-101 -53 -212 -53 ZM848 655 q22 -53 41 -53 l85 53 l55 0 q35 -5 37 -35 q4 -45 -171 -90 l-54 0 q-66 18 -99 125 q15 31 12 73 q-25 0 -51 -55 l6 -71 l33 -179 l18 0 l367 107 q1 211 -7 304 l-37 18 q-248 -42 -235 -197 ZM1755 512 q198 -22 202 -71 l4 -55 l-14 -35 q17 0 18 -17 q-32 0 -113 -144 q-18 0 -17 -18 q53 0 56 -36 l6 -70 l-18 0 q-40 0 -72 18 q-87 -55 -175 -55 l-71 0 l-38 19 l3 -37 q41 -58 45 -107 l1 -19 q3 -35 -33 -35 q-104 0 -182 484 q-18 0 -20 35 q276 143 418 143 ZM1450 298 q42 -87 52 -214 l36 0 q-2 35 120 70 q144 145 180 215 q-3 35 -38 35 q-265 -31 -350 -106 Z" /><glyph glyph-name="uni94FE" unicode="&#x94fe;" d="M348 1434 l54 0 q18 -98 18 -143 q-27 -129 -72 -197 q403 179 429 179 l18 -36 l0 -35 q-48 -78 -196 -161 l-215 -179 l0 -18 q122 89 358 89 q18 -34 18 -54 l35 18 q90 0 90 -357 q12 0 54 -144 q-22 -67 -90 -161 q48 0 609 -232 l35 0 l0 18 l-35 269 q-35 0 -126 -37 l-36 18 q-71 -14 -71 -36 q-198 18 -198 55 l0 36 q125 128 431 249 l0 53 l-18 0 q-55 0 -144 -35 q-161 14 -161 108 q0 100 90 322 l-17 0 q-153 -37 -198 -37 l0 19 q0 34 268 124 q0 18 54 251 l0 36 l90 18 l36 0 l17 -124 l-71 0 q0 -34 -35 -144 l35 0 q142 32 142 71 q-71 0 -71 54 l0 19 q144 -33 144 -73 l0 -35 q-45 -59 -269 -126 q-76 -129 -125 -375 l71 0 q179 22 179 71 l0 179 q6 35 36 35 l35 0 q21 0 108 -196 l90 19 l18 -37 l0 -18 l-53 -71 q142 -128 142 -179 q-60 -57 -286 -178 l0 -251 l-19 -90 q192 -35 251 -35 l89 0 l216 18 l0 -37 q0 -36 -358 -89 q-423 68 -770 250 q-188 90 -267 90 q0 -41 -251 -269 l-36 -18 q-90 18 -90 73 q0 249 37 446 l-37 0 q-110 -71 -232 -71 l0 53 q35 73 108 73 l17 -37 q179 0 179 304 q18 35 18 54 q-32 0 -108 -36 q-71 27 -71 55 q32 61 393 303 l0 17 q-186 -106 -286 -106 l-54 0 q-25 0 -53 53 q107 246 107 287 l0 71 ZM939 1237 l18 0 q107 -67 107 -90 l0 -35 l-19 0 q-105 0 -142 108 l36 17 ZM456 522 l232 124 l36 0 l0 -18 q0 -53 -268 -178 q-36 -215 -36 -340 l0 -107 l18 0 l214 215 l-18 35 l0 18 q0 37 197 55 q18 34 18 52 q-36 110 -54 358 q-33 126 -88 126 q-234 0 -234 -143 q-17 -160 -17 -197 ZM1565 665 l0 -54 l18 -179 q134 90 179 90 q-108 95 -108 143 l-89 0 ZM1422 522 q0 -46 -144 -108 q0 -36 -107 -53 l0 -35 l37 0 q267 52 267 106 l0 90 l-53 0 Z" /><glyph glyph-name="uni968F" unicode="&#x968f;" d="M1423 1631 q161 -197 268 -197 l0 -18 q0 -39 -304 -143 q-49 -115 -161 -268 q107 0 107 -55 l36 0 q97 73 179 73 q68 0 108 -179 l0 -788 q0 -35 -36 -35 l-37 0 q-35 0 -35 35 l0 90 q0 18 18 18 q0 18 -18 18 l18 179 l0 339 l-233 -54 l0 -71 q18 0 18 18 q179 -18 179 -54 l0 -35 l-90 18 q-142 -18 -142 -73 l0 -53 l89 -17 l107 0 l0 -54 l-214 -19 l0 -35 l-37 0 q-35 0 -35 35 q0 102 35 340 l-88 -16 l0 53 l106 71 l0 179 l-35 0 q-179 -48 -179 -126 q-16 0 -197 -196 q-53 0 -53 -36 q142 0 142 -250 q0 -91 -35 -215 q118 0 644 -215 l108 -17 l35 0 q200 0 429 35 l0 -18 l37 18 l35 0 l0 -53 q-321 -90 -572 -90 q-267 59 -591 233 q-116 0 -179 18 q0 -47 -143 -73 q-124 37 -124 73 l0 35 q232 0 232 90 q28 58 53 179 q-42 214 -179 214 l0 36 l234 232 l0 19 l-19 0 q-197 0 -197 54 l0 35 q53 0 53 18 q219 -23 251 -36 q68 63 232 322 l-35 0 q-40 -35 -340 -89 l-18 36 l0 18 q457 134 483 197 q41 250 90 250 ZM1459 1524 q0 -78 -36 -143 q125 17 125 53 q-71 0 -71 90 l-18 0 ZM833 1381 l71 0 l0 -73 q-376 -359 -376 -464 l0 -90 q214 -262 214 -537 l0 -35 l-35 -18 q-71 0 -322 215 l0 -36 q0 -40 18 -72 l-18 -36 q18 -98 18 -143 l-18 -36 q18 -35 18 -53 q0 -39 -18 -197 q18 -98 18 -143 q-19 0 -54 -18 q-73 0 -161 358 l90 0 l0 71 q0 74 18 197 l-18 35 l18 37 l-18 89 q18 127 18 143 q0 86 -55 305 q18 53 108 53 q54 -64 73 -303 q-19 -71 -19 -144 q66 -90 89 -90 l180 -143 l0 18 q0 210 -197 412 l-36 124 q2 147 250 412 q0 19 18 54 l-18 0 q-90 0 -90 -54 q-18 0 -53 18 q-218 -62 -411 -161 q-126 25 -126 71 q0 27 54 54 l72 -17 q490 197 698 197 ZM1351 789 l0 -53 l179 18 l36 0 q0 196 -54 196 q-161 -46 -161 -161 Z" /><glyph glyph-name="uni97F3" unicode="&#x97f3;" d="M974 1595 l72 0 q47 0 287 -108 q14 0 142 17 l0 -35 q0 -25 -89 -53 q0 -36 -36 -36 l-36 0 q-18 0 -18 18 q-305 -82 -305 -144 q0 -85 55 -214 q186 63 376 286 q35 -6 35 -36 l0 -36 q-59 -151 -303 -232 l-163 -36 l-17 0 q-53 138 -53 251 l0 35 q-162 -53 -268 -53 l-19 0 l0 35 q5 36 37 36 q17 0 17 -18 q220 90 519 162 q0 35 -216 107 l-17 36 l0 18 ZM1834 1003 l89 0 q36 -4 36 -35 l-36 -53 l-89 18 q-1490 -268 -1594 -268 l0 18 q0 48 1038 232 q487 88 556 88 ZM1010 753 l89 0 q0 -53 36 -125 q125 37 215 37 l18 0 q143 0 143 -269 l0 -590 q0 -97 -71 -126 q-126 96 -126 197 l0 18 l36 0 q36 0 36 -54 l36 0 l0 608 q0 143 -72 143 q-196 0 -196 -90 q-19 -66 -19 -160 l0 -17 l37 17 l161 0 q35 -6 35 -36 l0 -36 q-251 0 -251 -124 l0 -144 l269 71 l0 -53 q-362 -161 -519 -161 l-18 36 q8 46 161 88 q18 160 36 198 q-18 35 -18 53 q-72 0 -72 -88 l-71 0 q-36 0 -36 35 l0 71 q138 54 197 54 l0 286 q0 16 -36 143 l0 18 Z" /><glyph glyph-name="uni9891" unicode="&#x9891;" d="M590 1443 l54 0 q95 0 107 -89 q-18 -152 -18 -250 q0 -21 18 -55 q-64 -196 -107 -196 l-37 0 q0 85 55 555 l-108 0 q6 35 36 35 ZM1520 1318 l89 0 q132 0 143 -54 l0 -36 q-185 -192 -483 -304 l-17 0 q107 -82 107 -125 l36 0 q79 108 465 269 l54 0 q88 -102 88 -287 q-77 -447 -159 -447 l-55 0 l-88 18 q-36 -111 -36 -144 q232 -65 232 -179 l18 0 l88 19 q0 -19 19 -54 q-29 -89 -107 -89 q-250 192 -250 285 l-18 0 q-120 -138 -215 -179 l-89 0 q-36 0 -36 37 l0 18 q242 0 340 519 l0 124 l-19 126 l37 18 q28 0 88 -125 l-35 -322 l53 0 q43 0 108 267 l0 305 l-18 0 q-221 -90 -465 -269 l18 -124 l0 -216 q0 -35 -36 -35 l-53 0 q0 35 -18 35 q18 100 18 143 q0 289 -143 358 q-18 0 -18 18 q23 50 322 216 q0 12 124 124 q-18 0 -53 19 q-168 -37 -269 -37 l-35 0 l0 54 q172 54 268 54 ZM501 1264 q0 -17 17 -17 l-17 -37 q89 -318 89 -447 l108 90 l35 0 l0 -36 l18 0 q201 29 304 143 l18 0 q35 -5 35 -36 q0 -102 -375 -196 q0 -72 35 -233 l-17 -36 q17 -97 17 -161 l0 -71 q0 -26 -53 -55 l-17 0 q-20 0 -91 144 l18 0 l37 -18 q0 18 18 18 q-13 107 -36 107 q-304 -173 -304 -233 l-90 0 q-36 0 -36 55 q48 134 90 143 l125 -19 q0 49 215 90 l0 232 l-37 -18 q-17 0 -17 18 q-152 -71 -233 -71 l0 18 l-35 -18 l-108 0 q-35 0 -35 36 l0 17 q51 0 339 73 l0 71 q-107 298 -107 322 l0 18 q0 107 90 107 ZM1126 1228 l0 -71 q-256 -89 -321 -89 l-37 0 l0 36 q0 42 340 124 l18 0 ZM1019 638 q89 -11 89 -108 q-163 -490 -518 -662 l-54 -35 l-35 0 q-36 0 -36 35 l0 37 q6 35 36 35 q17 0 17 -18 q281 162 466 537 l0 108 l-72 0 q0 35 107 71 Z" /><glyph glyph-name="uni9996" unicode="&#x9996;" d="M1546 1630 l54 0 q27 0 71 -71 l0 -55 q0 -92 -448 -214 q77 85 359 233 l0 18 l-125 36 l0 35 l89 18 ZM777 1523 l35 0 q59 -118 287 -178 q89 -23 89 -55 l0 -18 l-143 0 q-206 84 -304 180 l0 35 q6 36 36 36 ZM1850 1201 l36 -54 q-128 -53 -179 -53 l-36 17 q-254 -47 -536 -340 q-73 -71 -108 -71 l0 -17 l90 -18 q168 142 357 142 q91 0 91 -142 q17 -80 17 -287 l0 -161 q0 -179 -17 -537 l-55 -35 l-36 0 q-23 0 -89 142 l0 72 l36 0 q0 -53 36 -53 q0 16 17 16 q0 48 18 484 q0 33 -18 429 l-17 0 q-304 -78 -304 -107 l-18 -107 l0 -37 q178 18 269 18 l35 0 q35 -4 35 -35 l0 -18 q-339 -53 -339 -107 l0 -72 l178 -18 l0 -53 l-17 0 q-19 0 -55 18 q-106 0 -106 -71 q-18 -68 -18 -163 q89 0 268 19 l0 -37 q-298 -66 -340 -143 q-35 19 -54 19 l0 18 l18 36 q-54 0 -54 35 l0 18 q0 35 72 35 l0 55 l18 126 l-36 17 l0 -35 l-54 0 q-35 0 -35 35 q0 47 125 71 l0 73 l-36 -19 l-18 0 q-53 19 -53 108 q0 53 124 53 l-17 35 l0 126 l-90 18 l0 37 q0 25 162 159 q91 153 214 180 l0 36 q-732 -143 -1020 -143 l0 35 q185 53 1289 216 q0 18 36 18 l0 -18 q18 18 214 35 Z" /><glyph glyph-name="hyphen" unicode="-" d="M296 510 l355 0 l0 -78 l-99 -20 l-256 0 l-236 20 l0 59 l236 19 Z" /><glyph glyph-name="colon" unicode=":" d="M158 569 l59 0 q40 -6 40 -39 l0 -98 q-20 -59 -118 -59 l-40 59 l0 78 q0 29 59 59 ZM139 18 l59 0 q39 0 79 -138 q-37 -98 -158 -98 q-59 72 -59 138 q38 90 79 98 Z" /><glyph glyph-name="M" unicode="m" d="M264 1086 q68 27 148 -5 q71 -29 129 -92 q59 -65 111 -180 q57 -131 57 -231 q6 108 74 261 q74 169 153 207 q86 42 185 33 q98 -8 176 -63 q190 -136 200 -509 q6 -226 -35 -450 q-64 89 -76 238 q-5 51 -4 131 q0 118 0 130 q-3 147 -56 257 q-64 131 -180 157 q-92 20 -183 -36 q-86 -53 -128 -146 q-38 -83 -64 -245 q-24 -146 -24 -253 q0 -94 -47 -126 q-55 77 -53 99 q7 77 0 120 q-3 25 -16 123 q-8 72 -17 115 q-24 128 -83 220 q-66 102 -134 130 q-46 19 -94 5 q-51 -14 -70 -56 q-173 -385 -141 -807 q-53 -10 -79 -15 q-63 419 103 809 q61 145 148 179 Z" /><glyph glyph-name="Q" unicode="q" d="M749 251 q-169 -157 -283 -182 q-145 -32 -283 68 q-130 95 -180 247 q-43 132 -31 301 q9 122 53 305 q44 182 104 266 q44 61 107 96 q69 37 137 29 q-108 -73 -178 -215 q-54 -108 -91 -274 q-52 -231 -28 -378 q17 -99 67 -179 q54 -87 135 -129 q87 -46 187 -28 q103 19 156 96 q-47 43 -113 56 q-65 12 -124 -11 q-19 33 13 66 q30 33 71 33 q29 1 77 -14 q55 -16 77 -18 q107 -11 191 91 q70 86 102 216 q81 330 -29 550 q-65 130 -195 200 q-136 72 -267 34 q-102 -31 -115 -33 q-66 -10 -97 28 q114 101 282 105 q164 4 295 -85 q125 -85 196 -234 q68 -141 69 -301 q2 -290 -196 -579 q-16 -23 -4 -55 q9 -27 33 -51 q76 -76 187 -100 q110 -23 210 16 q3 -11 -14 -37 q-20 -30 -52 -53 q-90 -65 -213 -26 q-100 37 -256 179 Z" /><glyph glyph-name="T" unicode="t" d="M697 1110 q-16 -18 -14 -66 q12 -323 37 -969 q-13 -20 -42 -17 q-27 3 -42 23 q-22 27 -24 94 q-4 127 -14 382 q-9 254 -13 381 q-4 92 -37 124 q-38 37 -141 29 q-74 -5 -213 -16 q-146 -12 -214 -17 q-15 9 -14 23 q1 13 14 28 q28 32 67 38 q552 85 1109 131 q16 -20 17 -46 q0 -27 -15 -47 q-203 -10 -403 -48 q-44 -9 -58 -27 Z" /><glyph glyph-name="o" unicode="o" d="M324 869 q-65 -152 -58 -322 q7 -170 84 -316 q48 -90 109 -93 q26 -2 64 16 q119 57 182 184 q63 126 37 256 q-26 129 -133 222 q-106 92 -238 99 q-4 52 59 68 q58 15 115 -9 q125 -53 209 -168 q84 -114 97 -250 q13 -135 -47 -264 q-60 -129 -172 -206 q-79 -54 -153 -58 q-80 -4 -154 50 q-68 51 -105 131 q-51 112 -47 328 q5 278 151 332 Z" /><glyph glyph-name="u" unicode="u" d="M1001 376 q-67 34 -145 -58 q-21 -26 -64 -88 q-42 -61 -65 -87 q-79 -91 -191 -88 q-112 4 -188 99 q-76 96 -86 247 q-10 151 52 263 q49 -44 64 -193 q16 -164 50 -215 q53 -80 150 -49 q81 26 159 114 q174 196 297 455 q-3 -219 79 -420 q82 -202 221 -316 q-56 -22 -117 -3 q-58 17 -107 67 q-109 110 -109 272 Z" /><glyph glyph-name="uniFF08" unicode="&#xff08;" d="M1207 999 l0 -59 q-152 -13 -236 -295 q-53 0 -79 -295 l0 -177 q0 -188 315 -217 l0 -39 l-98 -20 l-99 0 q-206 0 -236 335 q0 510 374 767 l59 0 Z" /><glyph glyph-name="uniFF09" unicode="&#xff09;" d="M832 1078 q249 0 335 -472 q20 -123 20 -276 q0 -445 -276 -512 l-59 0 q217 214 217 492 l0 178 q-40 531 -276 531 l0 20 q6 39 39 39 Z" /></font>
</defs>
</svg>
